<?xml version="1.0" encoding="utf-8"?>
<!-- Generator: Adobe Illustrator 24.0.0, SVG Export Plug-In . SVG Version: 6.00 Build 0)  -->
<svg version="1.1" id="Layer_1" xmlns="http://www.w3.org/2000/svg" xmlns:xlink="http://www.w3.org/1999/xlink" x="0px" y="0px"
	 viewBox="0 0 39 43.3" style="enable-background:new 0 0 39 43.3;" xml:space="preserve">
<style type="text/css">
	.st0{clip-path:url(#SVGID_2_);fill:#cd0010;}
	.st1{clip-path:url(#SVGID_2_);fill:#cd0010;}
</style>
<g>
	<defs>
		<rect id="SVGID_1_" y="0" width="39" height="43.3"/>
	</defs>
	<clipPath id="SVGID_2_">
		<use xlink:href="#SVGID_1_"  style="overflow:visible;"/>
	</clipPath>
	<path class="st0" d="M19,42.3c-0.01,0-0.02,0-0.03,0l-11-0.37C7.41,41.91,6.98,41.45,7,40.9c0.02-0.55,0.47-1,1.03-0.97l10.89,0.37
		l10.66-1.94c0.89-0.68,4.51-3.44,6.72-5.04c-0.81-0.37-1.89-0.58-2.44-0.32c-1.29,0.61-4.38,2.17-4.41,2.19
		c-0.14,0.07-0.3,0.11-0.45,0.11H19c-0.48,0-0.88-0.33-0.98-0.8l-0.5-2.43c-0.09-0.43,0.11-0.87,0.5-1.08c0,0,2.97-1.62,3.98-2.17
		c0.04-0.11,0.04-0.8-0.24-1.19c-0.12-0.16-0.2-0.19-0.41-0.13c-1.7,0.48-7.57,2.3-8.82,2.69l-1.6,1.6c-0.39,0.39-1.02,0.39-1.41,0
		c-0.39-0.39-0.39-1.02,0-1.41l1.78-1.78c0.11-0.11,0.25-0.2,0.41-0.25c0.29-0.09,7.19-2.24,9.12-2.78
		c1.25-0.35,2.39,0.25,2.91,1.52c0.49,1.2,0.34,2.88-0.77,3.49c-0.71,0.39-2.4,1.31-3.34,1.82l0.19,0.91h8.95
		c0.73-0.37,3.12-1.58,4.25-2.11c1.74-0.82,4.73,0.17,5.78,1.53c0.17,0.22,0.24,0.5,0.2,0.77c-0.04,0.27-0.2,0.51-0.42,0.67
		c-1.89,1.29-7.9,5.89-7.95,5.93c-0.13,0.1-0.27,0.16-0.43,0.19l-11,2C19.12,42.3,19.06,42.3,19,42.3"/>
	<path class="st1" d="M7,43.3H1c-0.55,0-1-0.45-1-1v-9.56c0-0.55,0.45-1,1-1s1,0.45,1,1v8.56h4v-11H1c-0.55,0-1-0.45-1-1s0.45-1,1-1
		h6c0.55,0,1,0.45,1,1v13C8,42.86,7.55,43.3,7,43.3"/>
	<path class="st0" d="M13.31,24.88V2.35h21.14v25.72c0.02,0,0.04,0,0.06,0c0.76,0,1.54,0.12,2.29,0.33V1.17
		C36.8,0.53,36.27,0,35.62,0H12.14c-0.65,0-1.17,0.52-1.17,1.17v24.44l0.01,0C11.57,25.42,12.4,25.16,13.31,24.88"/>
	<path class="st0" d="M19.29,15.2h-2.16c-0.65,0-1.17,0.52-1.17,1.17c0,0.65,0.52,1.17,1.17,1.17h2.16c0.65,0,1.17-0.52,1.17-1.17
		C20.46,15.72,19.94,15.2,19.29,15.2"/>
	<path class="st0" d="M19.29,20.19h-2.16c-0.65,0-1.17,0.53-1.17,1.17c0,0.65,0.52,1.17,1.17,1.17h2.16c0.65,0,1.17-0.52,1.17-1.17
		C20.46,20.72,19.94,20.19,19.29,20.19"/>
	<path class="st0" d="M25.21,15.2h-2.16c-0.65,0-1.17,0.52-1.17,1.17c0,0.65,0.52,1.17,1.17,1.17h2.16c0.65,0,1.17-0.52,1.17-1.17
		C26.39,15.72,25.86,15.2,25.21,15.2"/>
	<path class="st0" d="M25.21,20.19h-2.16c-0.65,0-1.17,0.53-1.17,1.17c0,0.65,0.52,1.17,1.17,1.17h2.16c0.65,0,1.17-0.52,1.17-1.17
		C26.39,20.72,25.86,20.19,25.21,20.19"/>
	<path class="st0" d="M31.42,15.2h-2.16c-0.65,0-1.17,0.52-1.17,1.17c0,0.65,0.52,1.17,1.17,1.17h2.16c0.65,0,1.17-0.52,1.17-1.17
		C32.59,15.72,32.07,15.2,31.42,15.2"/>
	<path class="st0" d="M31.42,20.19h-2.16c-0.65,0-1.17,0.53-1.17,1.17c0,0.65,0.52,1.17,1.17,1.17h2.16c0.65,0,1.17-0.52,1.17-1.17
		C32.59,20.72,32.07,20.19,31.42,20.19"/>
	<path class="st0" d="M19.29,5.17h-2.16c-0.65,0-1.17,0.52-1.17,1.17c0,0.65,0.52,1.17,1.17,1.17h2.16c0.65,0,1.17-0.52,1.17-1.17
		C20.46,5.69,19.94,5.17,19.29,5.17"/>
	<path class="st0" d="M19.29,10.02h-2.16c-0.65,0-1.17,0.52-1.17,1.17c0,0.65,0.52,1.17,1.17,1.17h2.16c0.65,0,1.17-0.52,1.17-1.17
		C20.46,10.54,19.94,10.02,19.29,10.02"/>
	<path class="st0" d="M25.21,5.17h-2.16c-0.65,0-1.17,0.52-1.17,1.17c0,0.65,0.52,1.17,1.17,1.17h2.16c0.65,0,1.17-0.52,1.17-1.17
		C26.39,5.69,25.86,5.17,25.21,5.17"/>
	<path class="st0" d="M25.21,10.02h-2.16c-0.65,0-1.17,0.52-1.17,1.17c0,0.65,0.52,1.17,1.17,1.17h2.16c0.65,0,1.17-0.52,1.17-1.17
		C26.39,10.54,25.86,10.02,25.21,10.02"/>
	<path class="st0" d="M29.26,7.52h2.16c0.65,0,1.17-0.52,1.17-1.17c0-0.65-0.52-1.17-1.17-1.17h-2.16c-0.65,0-1.17,0.52-1.17,1.17
		C28.09,6.99,28.61,7.52,29.26,7.52"/>
	<path class="st0" d="M31.42,10.02h-2.16c-0.65,0-1.17,0.52-1.17,1.17c0,0.65,0.52,1.17,1.17,1.17h2.16c0.65,0,1.17-0.52,1.17-1.17
		C32.59,10.54,32.07,10.02,31.42,10.02"/>
	<path class="st0" d="M31.42,25.19h-2.16c-0.65,0-1.17,0.52-1.17,1.17c0,0.65,0.52,1.17,1.17,1.17h2.16c0.65,0,1.17-0.52,1.17-1.17
		C32.59,25.71,32.07,25.19,31.42,25.19"/>
</g>
</svg>
