<?xml version="1.0" encoding="utf-8"?>
<!-- Generator: Adobe Illustrator 24.0.0, SVG Export Plug-In . SVG Version: 6.00 Build 0)  -->
<svg version="1.1" id="Layer_1" xmlns="http://www.w3.org/2000/svg" xmlns:xlink="http://www.w3.org/1999/xlink" x="0px" y="0px"
	 viewBox="0 0 35.83 27.51" style="enable-background:new 0 0 35.83 27.51;" xml:space="preserve">
<style type="text/css">
	.st0{clip-path:url(#SVGID_2_);fill:none;stroke:#cd0010;stroke-width:2;stroke-linecap:round;stroke-linejoin:round;}
	.st1{clip-path:url(#SVGID_2_);fill:#cd0010;}
	.st2{clip-path:url(#SVGID_2_);fill:#cd0010;}
</style>
<g>
	<defs>
		<rect id="SVGID_1_" y="0" width="35.83" height="27.51"/>
	</defs>
	<clipPath id="SVGID_2_">
		<use xlink:href="#SVGID_1_"  style="overflow:visible;"/>
	</clipPath>
	<polygon class="st0" points="24.12,26.51 24.12,18.72 28.1,18.72 28.1,26.51 34.83,26.51 34.83,16.05 26.11,9.07 17.39,16.05 
		17.39,26.51 17.51,26.51 	"/>
	<path class="st1" d="M19.85,14.88c0.07,0.02,0.15,0.03,0.22,0.03c0.46,0,0.87-0.31,0.97-0.78c0.12-0.54-0.21-1.07-0.75-1.2
		c-1.13-0.26-2.12-0.67-2.96-1.18c-0.62,0.45-1.3,0.8-2.03,1.03C16.51,13.73,18.06,14.47,19.85,14.88"/>
	<path class="st1" d="M23.05,0c-1.66,0-3.23,0.29-4.63,0.79c0.47,0.51,0.87,1.08,1.18,1.7C20.65,2.18,21.82,2,23.05,2
		c4.69,0,8.51,2.52,8.51,5.62c0,1.37-0.78,2.7-2.19,3.74c-0.96,0.7-2.16,1.24-3.49,1.55c-0.54,0.13-0.87,0.67-0.74,1.2
		c0.13,0.54,0.67,0.86,1.2,0.74c1.59-0.38,3.05-1.03,4.22-1.89c1.94-1.43,3-3.32,3-5.35C33.56,3.42,28.84,0,23.05,0"/>
	<path class="st2" d="M10.77,8.32C10.09,7.72,9.69,6.9,9.63,6c-0.06-0.9,0.24-1.77,0.84-2.45c0.67-0.76,1.6-1.14,2.54-1.14
		c0.8,0,1.59,0.28,2.23,0.84c0.47,0.42,0.79,0.95,0.97,1.51c0.01,0.01,0.01,0.03,0.02,0.04c0.02,0.08,0.04,0.15,0.06,0.23
		c0.04,0.16,0.07,0.31,0.07,0.47c0,0.04,0.01,0.08,0.01,0.12c0,0.05,0,0.1-0.01,0.15c0,0.55-0.13,1.1-0.39,1.6
		c-0.01,0.08-0.03,0.16-0.03,0.24c0,0.68,0.32,1.34,0.87,1.93c0.07-0.07,0.15-0.13,0.22-0.2c1.96-2.22,1.75-5.63-0.47-7.59
		c-2.22-1.96-5.63-1.75-7.59,0.47C8.02,3.31,7.55,4.69,7.64,6.12c0.07,1.1,0.46,2.12,1.12,2.96l-6.64,7.53l0,0c0,0,0,0,0,0
		l-1.87,2.12c-0.37,0.41-0.33,1.05,0.09,1.41c0.19,0.17,0.43,0.25,0.66,0.25c0.28,0,0.55-0.11,0.75-0.34l1.21-1.37l2.53,2.24
		c0.19,0.17,0.43,0.25,0.66,0.25c0.28,0,0.55-0.12,0.75-0.34c0.36-0.41,0.33-1.05-0.09-1.41l-2.53-2.24l1.36-1.54l2.53,2.24
		c0.19,0.17,0.43,0.25,0.66,0.25c0.28,0,0.55-0.12,0.75-0.34c0.37-0.41,0.33-1.05-0.09-1.41l-2.53-2.24l3.29-3.73
		c0.54,0.32,1.13,0.53,1.74,0.65c-0.41-0.76-0.68-1.58-0.8-2.43C11.05,8.54,10.91,8.44,10.77,8.32"/>
	<path class="st1" d="M20.07,14.9c-0.07,0-0.15-0.01-0.22-0.02c-4.37-1-7.31-3.92-7.31-7.26c0-0.82,0.17-1.61,0.52-2.38
		c0.23-0.5,0.82-0.73,1.32-0.5c0.5,0.23,0.73,0.82,0.5,1.32c-0.23,0.51-0.34,1.03-0.34,1.56c0,2.39,2.31,4.52,5.76,5.31
		c0.54,0.12,0.88,0.66,0.75,1.2C20.94,14.59,20.53,14.9,20.07,14.9"/>
</g>
</svg>
