<?xml version="1.0" encoding="utf-8"?>
<!-- Generator: Adobe Illustrator 24.0.0, SVG Export Plug-In . SVG Version: 6.00 Build 0)  -->
<svg version="1.1" id="Layer_1" xmlns="http://www.w3.org/2000/svg" xmlns:xlink="http://www.w3.org/1999/xlink" x="0px" y="0px"
	 viewBox="0 0 47.43 43.01" style="enable-background:new 0 0 47.43 43.01;" xml:space="preserve">
<style type="text/css">
	.st0{clip-path:url(#SVGID_2_);fill:#cd0010;}
	.st1{clip-path:url(#SVGID_2_);fill:#cd0010;}
</style>
<g>
	<defs>
		<rect id="SVGID_1_" y="0" width="47.43" height="43.01"/>
	</defs>
	<clipPath id="SVGID_2_">
		<use xlink:href="#SVGID_1_"  style="overflow:visible;"/>
	</clipPath>
	<path class="st0" d="M23.48,20.75v21.09c0,0.65,0.52,1.17,1.17,1.17c0.65,0,1.17-0.53,1.17-1.17V23.29
		C24.95,22.54,24.17,21.69,23.48,20.75"/>
	<path class="st0" d="M1.17,12.99C0.52,12.99,0,13.51,0,14.16v27.68c0,0.65,0.52,1.17,1.17,1.17s1.17-0.52,1.17-1.17V15.33h18.64
		c-0.17-0.76-0.29-1.54-0.34-2.35H1.17z"/>
	<path class="st0" d="M8.32,28.19H6.17c-0.65,0-1.17,0.53-1.17,1.17s0.53,1.17,1.17,1.17h2.16c0.65,0,1.17-0.52,1.17-1.17
		S8.97,28.19,8.32,28.19"/>
	<path class="st0" d="M8.32,33.18H6.17c-0.65,0-1.17,0.52-1.17,1.17c0,0.65,0.53,1.17,1.17,1.17h2.16c0.65,0,1.17-0.52,1.17-1.17
		C9.5,33.7,8.97,33.18,8.32,33.18"/>
	<path class="st0" d="M8.32,38.17H6.17c-0.65,0-1.17,0.53-1.17,1.17s0.53,1.17,1.17,1.17h2.16c0.65,0,1.17-0.52,1.17-1.17
		S8.97,38.17,8.32,38.17"/>
	<path class="st0" d="M14.25,28.19h-2.16c-0.65,0-1.17,0.53-1.17,1.17s0.52,1.17,1.17,1.17h2.16c0.65,0,1.17-0.52,1.17-1.17
		S14.89,28.19,14.25,28.19"/>
	<path class="st0" d="M14.25,33.18h-2.16c-0.65,0-1.17,0.52-1.17,1.17c0,0.65,0.52,1.17,1.17,1.17h2.16c0.65,0,1.17-0.52,1.17-1.17
		C15.42,33.7,14.89,33.18,14.25,33.18"/>
	<path class="st0" d="M14.25,38.17h-2.16c-0.65,0-1.17,0.53-1.17,1.17s0.52,1.17,1.17,1.17h2.16c0.65,0,1.17-0.52,1.17-1.17
		S14.89,38.17,14.25,38.17"/>
	<path class="st0" d="M20.45,28.19h-2.16c-0.65,0-1.17,0.53-1.17,1.17s0.52,1.17,1.17,1.17h2.16c0.65,0,1.17-0.52,1.17-1.17
		S21.1,28.19,20.45,28.19"/>
	<path class="st0" d="M20.45,33.18h-2.16c-0.65,0-1.17,0.52-1.17,1.17c0,0.65,0.52,1.17,1.17,1.17h2.16c0.65,0,1.17-0.52,1.17-1.17
		C21.62,33.7,21.1,33.18,20.45,33.18"/>
	<path class="st0" d="M8.32,18.16H6.17c-0.65,0-1.17,0.53-1.17,1.17c0,0.65,0.53,1.17,1.17,1.17h2.16c0.65,0,1.17-0.52,1.17-1.17
		C9.5,18.68,8.97,18.16,8.32,18.16"/>
	<path class="st0" d="M8.32,23.01H6.17c-0.65,0-1.17,0.53-1.17,1.17c0,0.65,0.53,1.17,1.17,1.17h2.16c0.65,0,1.17-0.52,1.17-1.17
		C9.5,23.53,8.97,23.01,8.32,23.01"/>
	<path class="st0" d="M14.25,18.16h-2.16c-0.65,0-1.17,0.53-1.17,1.17c0,0.65,0.52,1.17,1.17,1.17h2.16c0.65,0,1.17-0.52,1.17-1.17
		C15.42,18.68,14.89,18.16,14.25,18.16"/>
	<path class="st0" d="M14.25,23.01h-2.16c-0.65,0-1.17,0.53-1.17,1.17c0,0.65,0.52,1.17,1.17,1.17h2.16c0.65,0,1.17-0.52,1.17-1.17
		C15.42,23.53,14.89,23.01,14.25,23.01"/>
	<path class="st0" d="M20.45,18.16h-2.16c-0.65,0-1.17,0.53-1.17,1.17c0,0.65,0.52,1.17,1.17,1.17h2.16c0.65,0,1.17-0.52,1.17-1.17
		C21.62,18.68,21.1,18.16,20.45,18.16"/>
	<path class="st0" d="M20.45,23.01h-2.16c-0.65,0-1.17,0.53-1.17,1.17c0,0.65,0.52,1.17,1.17,1.17h2.16c0.65,0,1.17-0.52,1.17-1.17
		C21.62,23.53,21.1,23.01,20.45,23.01"/>
	<path class="st0" d="M20.45,38.17h-2.16c-0.65,0-1.17,0.53-1.17,1.17s0.52,1.17,1.17,1.17h2.16c0.65,0,1.17-0.52,1.17-1.17
		S21.1,38.17,20.45,38.17"/>
	<path class="st1" d="M35.43,0c-6.63,0-12,5.37-12,12c0,6.63,5.37,12,12,12c6.63,0,12-5.37,12-12C47.43,5.37,42.06,0,35.43,0
		 M38.43,10c0.55,0,1,0.45,1,1c0,0.55-0.45,1-1,1h-2v2h2c0.55,0,1,0.45,1,1s-0.45,1-1,1h-2v2c0,0.55-0.45,1-1,1c-0.55,0-1-0.45-1-1
		v-2h-2c-0.55,0-1-0.45-1-1s0.45-1,1-1h2v-2h-2c-0.55,0-1-0.45-1-1c0-0.55,0.45-1,1-1h3c-2.21,0-4-1.79-4-4c0-0.55,0.45-1,1-1
		c0.55,0,1,0.45,1,1c0,1.1,0.9,2,2,2c1.1,0,2-0.9,2-2c0-0.55,0.45-1,1-1c0.55,0,1,0.45,1,1c0,2.21-1.79,4-4,4H38.43z"/>
</g>
</svg>
