<?xml version="1.0" encoding="utf-8"?>
<!-- Generator: Adobe Illustrator 24.0.0, SVG Export Plug-In . SVG Version: 6.00 Build 0)  -->
<svg version="1.1" id="Layer_1" xmlns="http://www.w3.org/2000/svg" xmlns:xlink="http://www.w3.org/1999/xlink" x="0px" y="0px"
	 viewBox="0 0 409.27 19.46" style="enable-background:new 0 0 409.27 19.46;" xml:space="preserve">
<style type="text/css">
	.st0{clip-path:url(#SVGID_2_);fill:#ffffff;}
</style>
<g>
	<defs>
		<rect id="SVGID_1_" y="0" width="409.27" height="19.46"/>
	</defs>
	<clipPath id="SVGID_2_">
		<use xlink:href="#SVGID_1_"  style="overflow:visible;"/>
	</clipPath>
	<path class="st0" d="M355.24,7.23c0,5.61-1.32,7.41-2.78,8.9l-0.01,0.01v3.32l0.07-0.04c3.53-2.15,5.57-4.87,5.57-12.4V1.63h-2.84
		V7.23z M368.16,7.08c-0.24,3.21-1.28,7.28-4.87,8.47V1.61h-2.85v17.6l0.05,0c6.57-0.59,10.11-4.67,10.53-12.12l0-0.05h-2.86
		L368.16,7.08 M374.53,10.68h15.06V7.9h-15.06V10.68z M407.13,3.08c-0.51,0-0.94-0.43-0.94-0.94c0-0.52,0.43-0.96,0.94-0.96
		c0.53,0,0.96,0.43,0.96,0.96C408.08,2.65,407.65,3.08,407.13,3.08 M407.13,0c-1.08,0-2.02,0.88-2.1,1.98h-14.4v2.74h13.28
		c-0.61,6.27-4.48,10.42-10.92,11.69l-0.04,0.01v2.72l0.05-0.01c8.3-1.04,13.43-6.46,14.08-14.88h0.04c1.18,0,2.15-0.95,2.15-2.11
		C409.28,0.96,408.31,0,407.13,0 M349.27,1.94h-0.65V0.29h-1.82v1.65h-10.7l-0.01,0.03c-0.62,2.69-2.15,4.93-4.31,6.32l-0.02,0.01
		v2.99l0.06-0.02c2.81-1.05,5.23-3.52,6.48-6.61h8.11c-0.87,7.07-4.82,11.06-11.77,11.87l-0.04,0.01v2.7l0.05,0
		c9.09-0.72,14.24-6.18,14.9-15.82h1.54V0.29h-1.8V1.94 M315.83,10.62h-2.86v-3.2h2.86V10.62z M318.22,5.04h-7.91v5.97
		c0,1.07-0.08,4.79-1.05,8.12h2.73c0.43-1.15,0.76-3.87,0.91-6.09l0.01-0.15h5.32V5.04 M322.24,3.7h0.16c0.94,0,4.11-0.13,5.6-0.51
		c0-0.1,0.01-2.35,0.01-2.5c-3.53,0.58-4.59,0.58-8.02,0.57h-0.44v6.99c0,3.12-0.36,7.81-1.38,10.88h2.76
		c0.67-1.79,1.24-7.97,1.31-10.4h2.14v10.4h2.64V8.73h1.52v-2.5h-6.3V3.7 M318.22,1.26h-8.13v2.36h8.13V1.26z M243.74,18.15h18.45
		v-2.62h-18.45V18.15z M260.86,8.4h-15.78v2.62h15.78V8.4z M274.85,15.83c-1.05-0.33-1.99-0.72-2.74-1.2h5.91
		C277.22,15.09,276.11,15.49,274.85,15.83 M283.05,13.14h-9.28c0.79-0.56,1.52-1.22,2.11-2.01h-2.95c-2.79,2.14-5.56,2.6-7.14,2.93
		v1.98c0.38-0.04,1.78-0.23,3.48-0.76c0.57,0.48,1.24,0.91,1.96,1.3c-2.04,0.32-4.05,0.5-5.44,0.5v2.06c3.46,0,6.55-0.38,9.18-1.08
		c2.55,0.7,5.63,1.08,9.26,1.08v-2.06c-1.62,0-3.56-0.12-5.48-0.4C280.64,15.74,282.1,14.55,283.05,13.14 M281.53,0.72h-2.47v0.75
		h-8.1V0.72h-2.47v0.75h-2.7v1.91h2.7v0.76h2.47V3.38h8.1v0.76h2.47V3.38h2.71V1.46h-2.71V0.72 M276.25,6.72h7.23V4.84h-7.23V4.05
		h-2.47v0.79h-7.25v1.88h7.25v0.95h-7.99v1.88h4.03c-1.11,0.79-2.78,1.29-4.03,1.47v1.95c1.2-0.13,5.04-0.83,7.23-3.42h3.88v1.41
		c0,0.89,0.59,1.38,1.65,1.38h5.69v-1.83h-4.25c-0.54,0-0.54-0.36-0.54-0.56V9.55h4.79V7.67h-7.99V6.72 M261.31,1.89h-16.7v2.62
		h16.7V1.89z M301.6,0.72h-2.55v3.34c-0.54,0.14-1.22,0.32-1.92,0.5V2.35h-2.53v2.87c-0.53,0.14-0.9,0.23-0.92,0.24v2.72
		c0.03-0.01,0.38-0.1,0.92-0.24v8.49c0,1.25,0.73,2.71,2.77,2.71h8.66v-2.61h-7.72c-0.78,0-1.17-0.39-1.17-1.17V7.27
		c0.62-0.16,1.27-0.33,1.92-0.5v7.09h2.55V6.11c1.13-0.29,1.92-0.5,1.92-0.5v8.26h2.5V2.25c-0.12,0.03-2.74,0.71-4.43,1.15V0.72
		 M291.59,6.76h1.21V4.24h-1.21V0.72h-2.55v3.52h-1.46v2.52h1.46v7.62c-0.56,0.14-1.07,0.25-1.46,0.32v2.78
		c1.24-0.23,4.83-1.39,6.09-2.02v-2.5c-0.51,0.21-1.26,0.46-2.08,0.71V6.76"/>
	<path class="st0" d="M16.68,16.46c-1.12,0.24-1.54,0.64-2.12,1.31c-2.3-1.42-3.84-3.77-4.8-6.29C9.13,9.81,8.49,7.54,8.4,2.95
		c-0.07,0.02-0.11,0.02-0.2,0.03C8,9.36,6.77,15.3,0.08,17.72L0,17.57c2.29-1.37,4.24-3.92,5.12-5.73c1.35-2.79,1.65-6.77,1.65-8.86
		c0-0.9-0.07-1.13-0.17-1.42l2.27,0.58C9.18,2.2,9.24,2.24,9.24,2.39c0,0.3-0.3,0.41-0.49,0.47c0.13,3.26,1.13,7.2,2.87,9.69
		c1.81,2.57,4.14,3.43,5.08,3.77L16.68,16.46z"/>
	<path class="st0" d="M32.8,9.12c-1.82,0.36-3.56,1.03-5.27,1.76c0.06,0.32,0.19,1.12,0.19,2.21c0,0.39,0,1.63-0.67,1.63
		c-0.69,0-0.69-1.07-0.69-1.39c0-0.28,0-1.56-0.02-1.84c-1.26,0.79-2.68,2.15-2.68,3.17c0,1.42,2.45,1.42,3,1.42
		c1.01,0,2.16-0.19,2.87-0.32c0.36-0.05,0.47-0.08,0.66-0.08c0.81,0,1.12,0.49,1.12,0.82c0,0.34-0.34,0.54-0.58,0.6
		c-0.34,0.07-2.01,0.19-2.87,0.19c-1.03,0-4.97,0-4.97-2.32c0-1.76,2.3-3.47,3.37-4.18c-0.17-0.99-0.43-1.93-1.61-1.93
		c-1.14,0-2.04,1.13-2.34,1.61c-0.84,1.31-0.92,1.33-1.24,1.33c-0.45,0-0.54-0.32-0.54-0.77c0-0.67,0.2-0.84,0.41-1.03
		c1.33-1.14,2.29-2.66,3.21-4.18c-0.56,0.09-1.11,0.19-1.67,0.19c-1.27,0-1.89-0.69-1.85-1.67c0.58,0.54,1.11,0.7,1.93,0.7
		c0.79,0,1.87-0.17,2.17-0.23c0.26-0.43,1.03-1.82,1.03-2.14c0-0.26-0.41-0.65-1.27-0.77c0.21-0.2,0.49-0.45,1.14-0.45
		c0.92,0,1.71,0.7,1.71,1.08c0,0.26-0.17,0.49-0.3,0.66c-0.39,0.47-0.45,0.54-0.97,1.31c0.41-0.11,2.21-0.86,2.6-0.86
		c0.45,0,0.99,0.26,0.99,0.64c0,0.26-0.21,0.39-0.39,0.47c-0.86,0.38-2.92,0.71-3.99,0.88c-1.69,2.44-1.85,2.7-2.1,3.15
		c0.43-0.2,1.01-0.5,1.91-0.5c1.73,0,2.08,1.12,2.29,1.82c1.27-0.75,3.11-1.63,3.65-1.89c0.34-0.17,0.47-0.3,0.47-0.54
		c0-0.24-0.15-0.36-0.58-0.68c0.13-0.04,0.21-0.06,0.39-0.06c0.67,0,2.14,0.54,2.14,1.59C33.43,8.97,33.19,9.05,32.8,9.12"/>
	<path class="st0" d="M40.67,17.57c-0.6,0-0.75-0.49-0.94-1.1c-0.11-0.4-0.65-2.16-2.45-3.6l0.06-0.17
		c1.31,0.43,2.08,0.73,2.98,1.48c0.32,0.28,1.28,1.18,1.28,2.3C41.58,17.01,41.25,17.57,40.67,17.57"/>
	<path class="st0" d="M62.46,16.84c-0.56,0-0.73-0.49-0.88-0.98c-0.13-0.41-0.43-1.39-1.46-2.53l0.06-0.07c1.55,0.49,3,1.65,3,2.75
		C63.17,16.56,62.85,16.84,62.46,16.84 M60.59,8.57h-4.14v2.38h4.14V8.57z M60.59,5.8h-4.14v2.32h4.14V5.8z M60.59,3.05h-4.14v2.3
		h4.14V3.05z M61.79,3.61c-0.04,1.59,0.06,5,0.11,6.35c0,0.21,0.06,1.14,0.06,1.33c0,0.86-0.79,0.88-0.84,0.88
		c-0.6,0-0.56-0.4-0.54-0.77h-4.1c0.02,0.45-0.58,0.66-0.88,0.66c-0.54,0-0.54-0.39-0.54-0.54c0-0.24,0.08-1.33,0.08-1.56
		c0.08-2.25,0.09-3.78,0.09-5.23c0-1.54-0.04-1.89-0.2-2.81l1.52,0.67h3.84l0.51-0.47c0.08-0.06,0.24-0.19,0.32-0.19
		c0.13,0,0.36,0.17,0.41,0.21l0.62,0.45c0.11,0.09,0.22,0.19,0.22,0.34C62.44,3.2,62.16,3.38,61.79,3.61 M55.73,14.97
		c-0.47,0-0.64-0.39-0.8-0.82c-0.22-0.52-0.71-1.33-1.29-1.69l0.05-0.13c2.55,0.41,2.72,1.69,2.72,1.95
		C56.41,14.7,56.11,14.97,55.73,14.97 M59.22,17.38c-0.98,0.64-2.68,0.64-4.1,0.64c-3.88,0-3.88-0.25-3.88-2.33
		c0-0.97,0-2.32-0.13-2.94l1.73,0.49c0.11,0.04,0.24,0.1,0.24,0.23c0,0.26-0.36,0.51-0.56,0.62c0,0.34-0.02,1.82,0,2.12
		c0.02,0.41,0.17,0.49,0.34,0.51c0.23,0.04,1.72,0.09,2.44,0.09c2.15,0,2.36-0.22,2.6-0.5c0.45-0.51,0.84-1.61,1.01-2.1h0.09
		c0.11,1.2,0.19,1.74,0.52,1.93c0.19,0.11,0.28,0.17,0.28,0.35C59.8,16.78,59.52,17.19,59.22,17.38 M47.66,17.64
		c-0.43,0-0.71-0.34-0.71-0.71c0-0.41,0.15-0.52,0.81-1.05c1.07-0.86,1.33-1.76,1.44-2.17h0.11c0.04,0.28,0.08,0.56,0.08,0.96
		C49.38,16.76,48.37,17.64,47.66,17.64 M54.33,4.42h-2.51l-0.04,1.76c0.94,0.09,2.58,0.62,2.58,1.87c0,0.51-0.32,0.65-0.54,0.65
		c-0.53,0-0.77-0.45-0.99-0.88c-0.28-0.51-0.64-1.07-1.05-1.39c-0.02,0.79,0.07,4.29,0.07,5.01c0,0.84-0.92,0.84-0.99,0.84
		c-0.3,0-0.45-0.11-0.45-0.41c0-0.19,0.08-1.03,0.09-1.2c0.07-1.35,0.09-2.87,0.09-3.82V6.4c-0.45,0.84-1.67,2.75-4.42,4.44
		l-0.08-0.13c1.95-1.91,3.73-4.91,4.22-6.3h-0.86c-0.47,0-1.37,0.02-2.21,0.17l-0.37-0.75c1.16,0.09,2.32,0.13,2.88,0.13h0.84
		c0-1.78-0.09-2.08-0.36-2.83l1.82,0.49c0.26,0.07,0.3,0.19,0.3,0.32c0,0.19-0.09,0.28-0.54,0.58c0.02,0.53,0,0.86,0,1.45h0.53
		l0.56-0.75c0.11-0.15,0.19-0.25,0.28-0.25c0.09,0,0.21,0.08,0.36,0.21l0.88,0.75c0.11,0.09,0.19,0.22,0.19,0.3
		C54.61,4.39,54.46,4.42,54.33,4.42"/>
	<path class="st0" d="M75.66,4.32c-0.21,0-1.16-0.15-1.37-0.15c-0.66,0-1.41,0.32-1.97,0.56l-0.06-0.06
		c1.01-0.97,1.05-1.01,1.05-1.2c0-0.11-0.09-0.19-0.3-0.28c-1.12-0.52-1.58-0.71-2.17-1.52c-0.38-0.49-0.38-0.71-0.38-0.98
		c0.86,0.81,1.52,0.99,3.75,1.57c1.31,0.36,2.04,0.96,2.04,1.54C76.25,4.25,75.95,4.32,75.66,4.32 M71.98,18.68l-0.09-0.11
		c3.93-2.68,4.46-6.67,4.46-8.25c0-1.22-0.36-3.3-1.91-3.3c-1.05,0-2.27,0.95-3.05,1.95C70.61,9.92,70.39,10.2,70,10.2
		c-0.73,0-1.9-0.69-1.9-2c0-0.19,0.04-0.32,0.08-0.51c0.38,0.45,0.66,0.77,1.16,0.77c0.24,0,0.36,0,1.56-0.69
		c1.65-0.96,2.49-1.35,3.67-1.35c2.79,0,3.24,2.68,3.24,4.05C77.81,14.18,75.43,17.36,71.98,18.68"/>
	<path class="st0" d="M97.34,5.6l0.66-0.66c0.09-0.09,0.21-0.19,0.32-0.19c0.1,0,0.17,0.06,0.24,0.11l0.94,0.79
		c0.09,0.09,0.26,0.23,0.26,0.34c0,0.09-0.09,0.19-0.15,0.24c-0.07,0.07-0.41,0.34-0.56,0.45c-0.26,8.64-0.34,11.23-4.93,11.56
		c-0.11-0.94-1.33-1.82-2.23-2.21l0.04-0.13c0.51,0.13,1.89,0.45,3.05,0.45c0.67,0,1.41-0.08,1.91-1.24
		c0.3-0.71,0.79-4.91,0.79-7.53c0-0.41-0.02-1.18-0.04-1.54h-5.42c-0.15,1.74-0.45,4.1-1.57,6.33c-1.39,2.77-3.82,4.93-6.84,5.7
		l-0.08-0.15c2.61-1.28,6.56-4.54,6.99-11.88H86.8c-0.49,0-1.39,0.02-2.21,0.17l-0.36-0.75C85.77,5.6,86.88,5.6,87.1,5.6h3.64
		c0.11-2.47-0.19-3.73-0.39-4.61l2.29,0.73c0.06,0.02,0.39,0.13,0.39,0.32c0,0.19-0.08,0.24-0.73,0.73c0.02,0.6,0.04,1.5-0.04,2.83
		H97.34z"/>
	<path class="st0" d="M105.68,12.72c-1.2,0-2.16,1.01-2.16,2.21c0,1.2,0.94,2.23,2.16,2.23c1.21,0,2.17-1.01,2.17-2.21
		C107.85,13.71,106.87,12.72,105.68,12.72 M105.68,17.7c-1.52,0-2.7-1.26-2.7-2.77c0-1.54,1.22-2.75,2.7-2.75
		c1.5,0,2.71,1.22,2.71,2.75C108.39,16.44,107.21,17.7,105.68,17.7"/>
	<path class="st0" d="M134.37,3.51l0.47-0.71c0.07-0.11,0.19-0.22,0.3-0.22c0.13,0,0.25,0.11,0.4,0.22l0.82,0.67
		c0.11,0.09,0.19,0.15,0.19,0.3c0,0.17-0.17,0.19-0.3,0.19h-3.3c-0.19,0-0.66,0.02-1.01,0.06l-0.24-0.58
		c0.66,0.04,1.18,0.08,1.43,0.08H134.37z M134.54,8.4v4.09c0,0.3,0.06,3.05,0.06,3.61c0,0.94-0.17,1.65-2.14,2.23
		c-0.17-0.52-0.34-1.07-1.57-1.84v-0.11c0.39,0.06,0.92,0.09,1.24,0.09c0.96,0,1.18-0.08,1.18-0.62V8.42c-0.11,0-0.49,0-0.86,0.06
		L132.2,7.9c0.45,0.04,0.96,0.06,1.42,0.06h1.22l0.64-0.82c0.13-0.17,0.19-0.26,0.32-0.26c0.11,0,0.28,0.17,0.51,0.39l0.65,0.66
		c0.11,0.11,0.19,0.17,0.19,0.34c0,0.15-0.15,0.15-0.3,0.15H134.54 M129.46,4.64l0.49-0.6c0.11-0.15,0.19-0.23,0.3-0.23
		c0.1,0,0.19,0.08,0.34,0.19l0.8,0.6c0.13,0.09,0.19,0.17,0.19,0.3c0,0.15-0.15,0.19-0.3,0.19h-2.89v2.77h1.35l0.62-0.73
		c0.06-0.08,0.15-0.22,0.28-0.22c0.11,0,0.23,0.09,0.36,0.21l0.86,0.69c0.13,0.09,0.19,0.21,0.19,0.3c0,0.17-0.17,0.21-0.3,0.21
		h-4.93c-0.49,0-1.46,0.04-2.21,0.17l-0.36-0.75c1.33,0.11,2.64,0.13,2.98,0.13V5.09c-0.65,0-1.55,0-2.45,0.17l-0.38-0.73
		c1.05,0.08,1.24,0.08,2.83,0.11c-0.06-2.36-0.06-2.62-0.34-3.6l1.84,0.58c0.23,0.07,0.32,0.11,0.32,0.28
		c0,0.21-0.13,0.26-0.62,0.58c-0.02,0.36-0.04,1.86-0.04,2.16H129.46 M124.33,11.09c1.29,0.11,1.99,0.11,2.87,0.13
		c0-1.65,0-1.82-0.11-2.64l1.57,0.3c0.17,0.04,0.28,0.09,0.28,0.22c0,0.17-0.05,0.21-0.56,0.56v1.56h0.98l0.67-0.73
		c0.15-0.17,0.19-0.24,0.3-0.24c0.09,0,0.17,0.07,0.34,0.2l0.88,0.73c0.11,0.09,0.2,0.19,0.2,0.28c0,0.17-0.15,0.2-0.3,0.2h-3.07
		v2.72c1.35-0.22,2.7-0.49,4.03-0.83l0.04,0.13c-2.53,1.2-4.42,1.78-6.76,2.44c-0.11,0.26-0.21,0.43-0.39,0.43
		c-0.11,0-0.24-0.13-0.28-0.22l-0.79-1.7c0.26,0.02,0.64,0.07,1,0.07c0.3,0,1.18-0.06,1.99-0.17v-2.87c-0.71,0-1.57,0-2.49,0.17
		L124.33,11.09 M124.57,6.14c0.15,0.11,0.26,0.21,0.26,0.32c0,0.17-0.17,0.22-0.66,0.3c-0.26,0.45-0.49,0.79-0.79,1.2
		c0.49,0.22,0.56,0.28,0.56,0.43c0,0.17-0.19,0.28-0.52,0.49c0,1.26,0,5.21,0.04,6.47c0,0.28,0.08,1.74,0.08,2.06
		c0,0.15,0,0.32-0.08,0.45c-0.11,0.17-0.53,0.4-0.9,0.4c-0.47,0-0.47-0.41-0.47-0.6c0-0.47,0.11-2.92,0.13-3.46
		c0.02-1.31,0.06-3.17,0.02-4.78c-1.29,1.44-2.19,2.03-2.68,2.32l-0.07-0.06c2.81-3.43,3.58-5.96,3.71-6.48L124.57,6.14
		 M124.87,2.24c0.09,0.09,0.17,0.17,0.17,0.3c0,0.18-0.13,0.22-0.77,0.28c-0.97,1.07-2.62,2.68-4.84,3.56l-0.02-0.08
		c2.34-1.87,3.88-4.37,4.16-5.3L124.87,2.24"/>
	<path class="st0" d="M153,9.14c-1.82,0.36-3.56,1.03-5.27,1.76c0.06,0.32,0.19,1.12,0.19,2.21c0,0.39,0,1.63-0.67,1.63
		c-0.69,0-0.69-1.07-0.69-1.39c0-0.28,0-1.55-0.02-1.84c-1.26,0.79-2.68,2.16-2.68,3.17c0,1.42,2.45,1.42,3,1.42
		c1.01,0,2.16-0.19,2.87-0.32c0.36-0.05,0.47-0.07,0.66-0.07c0.8,0,1.12,0.49,1.12,0.82c0,0.34-0.34,0.54-0.58,0.6
		c-0.34,0.07-2.01,0.19-2.87,0.19c-1.03,0-4.96,0-4.96-2.32c0-1.76,2.3-3.47,3.37-4.18c-0.17-0.99-0.43-1.93-1.61-1.93
		c-1.14,0-2.04,1.12-2.34,1.61c-0.84,1.31-0.92,1.33-1.24,1.33c-0.45,0-0.54-0.32-0.54-0.77c0-0.67,0.21-0.84,0.41-1.03
		c1.33-1.14,2.29-2.66,3.2-4.18c-0.56,0.09-1.1,0.19-1.67,0.19c-1.28,0-1.89-0.69-1.85-1.67c0.58,0.54,1.1,0.69,1.93,0.69
		c0.79,0,1.87-0.17,2.17-0.22c0.26-0.43,1.03-1.82,1.03-2.14c0-0.26-0.41-0.65-1.27-0.77c0.21-0.21,0.49-0.45,1.14-0.45
		c0.92,0,1.71,0.69,1.71,1.09c0,0.26-0.17,0.49-0.3,0.66c-0.39,0.47-0.45,0.54-0.97,1.31c0.41-0.11,2.21-0.86,2.6-0.86
		c0.45,0,0.99,0.26,0.99,0.64c0,0.26-0.21,0.39-0.39,0.47c-0.86,0.37-2.92,0.71-3.99,0.88c-1.69,2.44-1.85,2.7-2.1,3.15
		c0.43-0.21,1.01-0.51,1.91-0.51c1.72,0,2.08,1.13,2.29,1.82c1.27-0.75,3.11-1.63,3.65-1.89c0.34-0.17,0.47-0.3,0.47-0.54
		c0-0.24-0.15-0.36-0.58-0.68c0.13-0.04,0.21-0.05,0.39-0.05c0.67,0,2.14,0.54,2.14,1.59C153.64,8.99,153.39,9.06,153,9.14"/>
	<path class="st0" d="M160.87,17.59c-0.6,0-0.75-0.49-0.94-1.11c-0.11-0.39-0.65-2.16-2.46-3.6l0.06-0.17
		c1.31,0.43,2.08,0.73,2.98,1.48c0.32,0.28,1.27,1.18,1.27,2.31C161.79,17.02,161.45,17.59,160.87,17.59"/>
	<path class="st0" d="M182.66,16.86c-0.56,0-0.73-0.49-0.88-0.97c-0.13-0.41-0.43-1.39-1.46-2.53l0.06-0.07c1.55,0.49,3,1.65,3,2.76
		C183.38,16.58,183.06,16.86,182.66,16.86 M180.79,8.59h-4.14v2.38h4.14V8.59z M180.79,5.82h-4.14v2.32h4.14V5.82z M180.79,3.06
		h-4.14v2.31h4.14V3.06z M181.99,3.63c-0.04,1.59,0.05,5,0.11,6.35c0,0.21,0.06,1.14,0.06,1.33c0,0.86-0.79,0.88-0.84,0.88
		c-0.6,0-0.56-0.39-0.54-0.77h-4.1c0.02,0.45-0.58,0.66-0.88,0.66c-0.54,0-0.54-0.39-0.54-0.54c0-0.25,0.07-1.33,0.07-1.56
		c0.08-2.25,0.09-3.79,0.09-5.23c0-1.53-0.04-1.89-0.21-2.81l1.52,0.68h3.84l0.51-0.47c0.07-0.06,0.24-0.19,0.32-0.19
		c0.13,0,0.36,0.17,0.41,0.21l0.62,0.45c0.11,0.09,0.23,0.19,0.23,0.34C182.65,3.21,182.36,3.4,181.99,3.63 M175.93,14.98
		c-0.47,0-0.64-0.39-0.8-0.82c-0.23-0.52-0.71-1.33-1.29-1.69l0.06-0.13c2.55,0.41,2.72,1.69,2.72,1.95
		C176.61,14.72,176.31,14.98,175.93,14.98 M179.42,17.4c-0.98,0.64-2.68,0.64-4.1,0.64c-3.88,0-3.88-0.24-3.88-2.32
		c0-0.97,0-2.32-0.13-2.94l1.73,0.49c0.11,0.04,0.24,0.09,0.24,0.22c0,0.26-0.36,0.51-0.56,0.62c0,0.34-0.02,1.82,0,2.12
		c0.02,0.41,0.17,0.49,0.34,0.51c0.23,0.04,1.72,0.09,2.43,0.09c2.15,0,2.36-0.22,2.61-0.51c0.45-0.51,0.84-1.61,1.01-2.1h0.1
		c0.11,1.2,0.19,1.74,0.52,1.93c0.19,0.11,0.28,0.17,0.28,0.36C180,16.8,179.72,17.21,179.42,17.4 M167.86,17.66
		c-0.43,0-0.71-0.34-0.71-0.71c0-0.41,0.15-0.52,0.81-1.05c1.07-0.86,1.33-1.76,1.44-2.18h0.11c0.04,0.28,0.07,0.56,0.07,0.96
		C169.58,16.78,168.57,17.66,167.86,17.66 M174.53,4.43h-2.51l-0.04,1.76c0.94,0.1,2.59,0.62,2.59,1.87c0,0.51-0.32,0.66-0.54,0.66
		c-0.52,0-0.77-0.45-0.99-0.88c-0.28-0.51-0.64-1.07-1.05-1.39c-0.02,0.79,0.07,4.29,0.07,5c0,0.84-0.92,0.84-0.99,0.84
		c-0.3,0-0.45-0.11-0.45-0.41c0-0.19,0.07-1.03,0.09-1.2c0.08-1.35,0.09-2.87,0.09-3.82V6.42c-0.45,0.84-1.67,2.75-4.42,4.44
		l-0.07-0.13c1.95-1.91,3.73-4.91,4.22-6.3h-0.86c-0.47,0-1.37,0.02-2.21,0.17l-0.37-0.75c1.16,0.09,2.32,0.13,2.88,0.13h0.84
		c0-1.78-0.09-2.08-0.36-2.83l1.82,0.49c0.26,0.08,0.3,0.19,0.3,0.32c0,0.19-0.09,0.28-0.54,0.58c0.02,0.52,0,0.86,0,1.44h0.53
		l0.56-0.75c0.11-0.15,0.19-0.24,0.28-0.24c0.09,0,0.21,0.07,0.36,0.21l0.88,0.75c0.11,0.1,0.19,0.23,0.19,0.3
		C174.81,4.41,174.66,4.43,174.53,4.43"/>
	<path class="st0" d="M195.86,4.34c-0.21,0-1.16-0.15-1.37-0.15c-0.65,0-1.41,0.32-1.97,0.56l-0.06-0.06
		c1.01-0.97,1.05-1.01,1.05-1.2c0-0.11-0.09-0.19-0.3-0.28c-1.12-0.53-1.57-0.71-2.17-1.52c-0.38-0.49-0.38-0.71-0.38-0.98
		c0.86,0.81,1.52,0.99,3.75,1.58c1.31,0.35,2.04,0.95,2.04,1.54C196.46,4.26,196.16,4.34,195.86,4.34 M192.18,18.69l-0.09-0.11
		c3.93-2.68,4.46-6.67,4.46-8.25c0-1.22-0.35-3.3-1.91-3.3c-1.05,0-2.27,0.95-3.05,1.95c-0.77,0.96-0.99,1.24-1.39,1.24
		c-0.73,0-1.89-0.69-1.89-2c0-0.19,0.04-0.32,0.08-0.5c0.37,0.45,0.66,0.77,1.16,0.77c0.24,0,0.36,0,1.56-0.69
		c1.65-0.96,2.49-1.35,3.67-1.35c2.79,0,3.24,2.68,3.24,4.05C198.01,14.19,195.63,17.38,192.18,18.69"/>
	<path class="st0" d="M217.54,5.61l0.65-0.66c0.09-0.1,0.2-0.19,0.32-0.19c0.09,0,0.17,0.06,0.24,0.11l0.94,0.79
		c0.1,0.09,0.26,0.22,0.26,0.34c0,0.09-0.09,0.19-0.15,0.24c-0.08,0.08-0.41,0.34-0.56,0.45c-0.26,8.64-0.34,11.23-4.93,11.56
		c-0.11-0.93-1.33-1.82-2.23-2.21l0.04-0.13c0.51,0.13,1.89,0.45,3.05,0.45c0.68,0,1.41-0.07,1.91-1.24
		c0.3-0.71,0.79-4.91,0.79-7.53c0-0.41-0.02-1.18-0.04-1.54h-5.42c-0.15,1.74-0.45,4.11-1.57,6.33c-1.38,2.78-3.82,4.93-6.84,5.7
		l-0.08-0.15c2.61-1.27,6.56-4.53,6.99-11.88h-3.92c-0.49,0-1.38,0.02-2.21,0.17l-0.36-0.75c1.54,0.13,2.64,0.13,2.87,0.13h3.64
		c0.11-2.47-0.19-3.73-0.39-4.61l2.29,0.73c0.05,0.02,0.39,0.13,0.39,0.32s-0.07,0.24-0.73,0.73c0.02,0.6,0.04,1.5-0.04,2.83H217.54
		z"/>
	<path class="st0" d="M225.88,12.73c-1.2,0-2.16,1.01-2.16,2.21s0.94,2.23,2.16,2.23c1.22,0,2.17-1.01,2.17-2.21
		C228.05,13.73,227.08,12.73,225.88,12.73 M225.88,17.72c-1.52,0-2.7-1.26-2.7-2.77c0-1.54,1.22-2.75,2.7-2.75
		c1.5,0,2.72,1.22,2.72,2.75C228.6,16.46,227.41,17.72,225.88,17.72"/>
</g>
</svg>
