<?xml version="1.0" encoding="utf-8"?>
<!-- Generator: Adobe Illustrator 24.0.0, SVG Export Plug-In . SVG Version: 6.00 Build 0)  -->
<svg version="1.1" id="Layer_1" xmlns="http://www.w3.org/2000/svg" xmlns:xlink="http://www.w3.org/1999/xlink" x="0px" y="0px"
	 viewBox="0 0 36 36" style="enable-background:new 0 0 36 36;" xml:space="preserve">
<style type="text/css">
	.st0{fill:#FFFFFF;}
</style>
<path class="st0" d="M3,36c-0.8,0-1.5-0.3-2.1-0.9C0.3,34.5,0,33.8,0,33V3c0-0.8,0.3-1.5,0.9-2.1S2.2,0,3,0h14v3H3v30h30V19h3v14
	c0,0.8-0.3,1.5-0.9,2.1C34.5,35.7,33.8,36,33,36H3z M13.1,25L11,22.9L30.9,3H20V0h16v16h-3V5.1L13.1,25z"/>
</svg>
