<?xml version="1.0" encoding="UTF-8"?><svg id="_レイヤー_2" xmlns="http://www.w3.org/2000/svg" viewBox="0 0 36 36.1"><defs><style>.cls-1{fill:#fff;}</style></defs><g id="_レイヤー_1-2"><path class="cls-1" d="M32.8,17.7c-.2-4-1.7-7.5-4.5-10.2-2.8-2.8-6.2-4.3-10.2-4.4V0c2.4,0,4.7,.6,6.8,1.5,2.1,1,4,2.2,5.6,3.8,1.6,1.6,2.9,3.5,3.8,5.6,1,2.1,1.5,4.4,1.5,6.8h-3Zm-8.5,0c-.2-1.7-.8-3.1-2-4.2-1.2-1.1-2.6-1.8-4.2-2v-3c2.5,.2,4.6,1.1,6.4,2.9,1.7,1.7,2.7,3.9,2.9,6.4h-3Zm9.4,18.3c-4.1,0-8.1-1-12.1-3s-7.6-4.6-10.8-7.8c-3.2-3.2-5.8-6.8-7.8-10.8C1,10.4,0,6.4,0,2.3S.2,1.1,.7,.7,1.6,0,2.2,0h7c.5,0,.9,.2,1.2,.5,.3,.3,.6,.7,.7,1.3l1.4,6.3c0,.5,0,.9,0,1.3,0,.4-.3,.7-.5,1l-5,5c1.9,3.1,4,5.8,6.3,8.1,2.3,2.3,4.9,4.3,7.9,5.9l4.8-4.9c.3-.4,.7-.6,1.1-.8s.9-.2,1.3,0l6,1.3c.5,0,.9,.3,1.2,.8,.3,.4,.5,.9,.5,1.4v6.8c0,.6-.2,1.2-.7,1.6-.4,.4-1,.7-1.6,.7ZM5.5,12.7l4.1-4.1-1.2-5.5H3c0,1.3,.2,2.7,.6,4.3s1,3.3,1.9,5.3ZM23.9,30.8c1.4,.6,2.9,1.1,4.4,1.5,1.6,.4,3.2,.6,4.7,.7v-5.3l-5.2-1-3.9,4.1Z"/></g></svg>