<?xml version="1.0" encoding="utf-8"?>
<!-- Generator: Adobe Illustrator 24.0.0, SVG Export Plug-In . SVG Version: 6.00 Build 0)  -->
<svg version="1.1" id="Layer_1" xmlns="http://www.w3.org/2000/svg" xmlns:xlink="http://www.w3.org/1999/xlink" x="0px" y="0px"
	 viewBox="0 0 39 38.88" style="enable-background:new 0 0 39 38.88;" xml:space="preserve">
<style type="text/css">
	.st0{clip-path:url(#SVGID_2_);fill:none;stroke:#cd0010;stroke-width:2;stroke-linecap:round;stroke-linejoin:round;}
	.st1{clip-path:url(#SVGID_2_);fill:none;stroke:#cd0010;stroke-width:2;stroke-linecap:round;stroke-linejoin:round;}
</style>
<g>
	<defs>
		<rect id="SVGID_1_" y="0" width="39" height="38.88"/>
	</defs>
	<clipPath id="SVGID_2_">
		<use xlink:href="#SVGID_1_"  style="overflow:visible;"/>
	</clipPath>
	<polyline class="st0" points="1,24.88 7,24.88 7,37.88 1,37.88 1,28.32 	"/>
	<path class="st0" d="M10.22,26.66L12,24.88c0,0,7.15-2.23,9.09-2.77c1.94-0.54,2.4,2.61,1.4,3.17c-1.01,0.55-3.98,2.18-3.98,2.18
		l0.5,2.43h10c0,0,3.12-1.58,4.43-2.2c1.32-0.62,3.79,0.23,4.57,1.24c-1.93,1.32-8,5.96-8,5.96l-11,2L8,36.51"/>
	<path class="st1" d="M28.03,9.4c-2.22,0.96-4.8-0.06-5.76-2.27s0.06-4.8,2.27-5.76c2.22-0.96,4.8,0.06,5.76,2.27
		C31.27,5.86,30.25,8.44,28.03,9.4z"/>
	<line class="st1" x1="9.64" y1="12.6" x2="22.27" y2="7.12"/>
	<line class="st1" x1="17.7" y1="13.88" x2="15.96" y2="9.86"/>
	<line class="st1" x1="13.97" y1="15.49" x2="12.23" y2="11.48"/>
</g>
</svg>
