<?xml version="1.0" encoding="utf-8"?>
<!-- Generator: Adobe Illustrator 24.0.0, SVG Export Plug-In . SVG Version: 6.00 Build 0)  -->
<svg version="1.1" id="Layer_1" xmlns="http://www.w3.org/2000/svg" xmlns:xlink="http://www.w3.org/1999/xlink" x="0px" y="0px"
	 viewBox="0 0 89.31 58.5" style="enable-background:new 0 0 89.31 58.5;" xml:space="preserve">
<style type="text/css">
	.st0{clip-path:url(#SVGID_2_);fill:#4C575E;}
	.st1{clip-path:url(#SVGID_2_);fill:#006F39;}
</style>
<g>
	<defs>
		<rect id="SVGID_1_" y="0" width="89.31" height="58.5"/>
	</defs>
	<clipPath id="SVGID_2_">
		<use xlink:href="#SVGID_1_"  style="overflow:visible;"/>
	</clipPath>
	<path class="st0" d="M10.52,46.41l-0.05,0.03c0,0-0.07,0.34-0.08,0.37c-0.1,0.2-0.34,0.25-1.76,0.25H2.09
		c-0.44,0-0.53-0.02-0.67-0.35l-0.03-0.07H0.85l-0.01,0.09c-0.21,1.02-0.54,2.2-0.79,3L0,49.88h0.75l0.03-0.06
		c0.32-0.69,0.58-1.16,0.83-1.46c0.29-0.33,0.66-0.48,2.08-0.48h1.07c-0.06,0.27-1.76,8.06-1.76,8.06
		c-0.33,1.48-0.39,1.53-1.79,1.65l-0.09,0.01l-0.15,0.68h4.93l0.15-0.68l-0.13-0.01c-0.72-0.06-1.17-0.11-1.33-0.32
		c-0.06-0.08-0.09-0.2-0.09-0.36c0-0.22,0.05-0.52,0.13-0.92c0,0,1.65-7.92,1.69-8.11h1.04c1.09,0,1.96,0.07,2.8,0.14
		c-0.57,2.91-1.36,6.7-2.14,10.18L8,58.26l0.23,0.23l0.07-0.03c0.34-0.13,0.78-0.25,1.18-0.32l0.09-0.01l0.01-0.08
		c0.15-0.87,0.46-2.35,0.66-3.1c0.82-1.39,2.77-3.23,3.42-3.23c0.07,0,0.09,0.02,0.1,0.04c0.08,0.09,0.06,0.42-0.08,0.97l-0.91,3.99
		c-0.2,0.85-0.2,1.35,0.01,1.59c0.09,0.11,0.22,0.17,0.38,0.17c0.53,0,1.62-0.63,2.54-1.67l0.05-0.06l-0.31-0.6l-0.12,0.11
		c-0.47,0.44-0.95,0.71-1.09,0.72c0-0.01,0-0.01,0-0.04c0-0.06,0.02-0.18,0.07-0.42l0.93-4.08c0.09-0.4,0.14-0.74,0.14-1.02
		c0-0.33-0.06-0.57-0.2-0.74c-0.13-0.16-0.32-0.24-0.56-0.24c-0.31,0-0.69,0.11-1.14,0.36c-0.49,0.26-1.72,1.02-2.95,2.51
		c0.12-0.57,0.42-1.98,0.42-1.98c0.34-1.58,0.66-3.08,1.02-4.65c0.03-0.16,0.05-0.3,0.05-0.4c0-0.09-0.02-0.17-0.06-0.22
		c-0.04-0.05-0.11-0.08-0.19-0.08C11.49,45.98,10.86,46.24,10.52,46.41"/>
	<path class="st0" d="M18.35,51.41c-1.26,0.96-2.07,2.72-2.07,4.48c0,2.4,1.52,2.59,1.98,2.59c0.83,0,2.15-0.34,3.66-1.96l0.07-0.06
		l-0.43-0.58l-0.09,0.09c-0.81,0.8-1.7,1.27-2.39,1.27c-1.04,0-1.2-1.12-1.2-1.79c0-0.15,0.01-0.28,0.02-0.45
		c2.06-0.53,4.48-1.48,4.48-3.1c0-0.83-0.69-1.47-1.61-1.47C20.06,50.44,19.14,50.82,18.35,51.41 M19.5,51.56L19.5,51.56
		c0.18-0.11,0.43-0.19,0.63-0.19c0.45,0,0.73,0.32,0.73,0.82c0,0.83-0.94,1.49-2.85,2.03C18.34,52.35,19.23,51.71,19.5,51.56
		 M19.38,51.36C19.38,51.36,19.38,51.36,19.38,51.36L19.38,51.36z"/>
	<path class="st0" d="M26.58,47.06l-0.15,0.66l0.13,0.01c0.67,0.08,0.99,0.14,1.11,0.31c0.12,0.16,0.08,0.49-0.05,1.12l-1.35,6.86
		c-0.28,1.39-0.38,1.43-1.62,1.56l-0.09,0.01l-0.15,0.68h4.72l0.15-0.68l-0.13-0.01c-0.79-0.07-1.16-0.13-1.3-0.32
		c-0.06-0.08-0.09-0.2-0.09-0.36c0-0.2,0.04-0.47,0.11-0.84c0,0,0.44-2.31,0.49-2.54c0.2,0.06,1.03,0.32,1.03,0.32l0.68-0.02
		c1.99-0.13,4.13-1.37,4.13-3.81c0-1.94-1.26-2.96-3.67-2.96H26.58z M29.29,48.65c0.1-0.51,0.21-0.65,0.34-0.71
		c0.17-0.08,0.41-0.13,0.68-0.13c1.36,0,2.15,0.79,2.15,2.15c0,2.34-1.85,2.96-2.82,2.96c-0.54,0-0.91-0.11-1.12-0.18
		C28.55,52.56,29.29,48.65,29.29,48.65"/>
	<path class="st0" d="M35.15,51.77c-1.24,1.03-2.07,2.92-2.07,4.68c0,1.39,0.57,2.03,1.1,2.03c0.46,0,1.01-0.27,1.65-0.79
		c0.7-0.56,1.37-1.26,1.94-1.99c-0.1,0.47-0.25,1.16-0.25,1.16c-0.07,0.35-0.1,0.64-0.1,0.87c0,0.28,0.05,0.48,0.15,0.6
		c0.09,0.1,0.22,0.16,0.37,0.16c0.45,0,1.63-0.64,2.56-1.8l0.05-0.06L40.23,56l-0.11,0.11c-0.47,0.47-0.98,0.79-1.12,0.84
		c0-0.01,0-0.04,0-0.08c0-0.08,0.01-0.23,0.07-0.5c0.38-2.1,0.88-4.39,1.16-5.48l0.01-0.06l-0.12-0.16h-0.05
		c-0.16,0-0.36-0.04-0.56-0.09l-0.06-0.01c-0.32-0.06-0.69-0.12-1.07-0.12C37.38,50.44,36.12,50.97,35.15,51.77 M34.72,56.16
		c0-1.55,0.61-3.56,1.77-4.42c0.27-0.2,0.71-0.33,1.13-0.33c0.37,0,0.76,0.09,1,0.19c-0.02,0.09-0.04,0.21-0.04,0.21
		c-0.13,0.62-0.33,1.54-0.49,2.11c-0.61,1.25-2.48,3.24-3.03,3.24C34.92,57.16,34.72,56.89,34.72,56.16"/>
	<path class="st0" d="M43.58,52.79c0.02-0.1,0.05-0.24,0.05-0.24c0.11-0.53,0.17-0.95,0.17-1.28c0-0.32-0.05-0.55-0.16-0.68
		c-0.08-0.09-0.19-0.14-0.31-0.14c-0.52,0-1.61,0.74-2.46,1.7l-0.06,0.06l0.34,0.6l0.11-0.1c0.49-0.46,0.97-0.75,1.1-0.78
		c0.01,0.02,0.01,0.03,0.01,0.05c0,0.14-0.05,0.43-0.07,0.53c-0.27,1.53-0.69,3.45-1.23,5.69l-0.02,0.07l0.23,0.23l0.07-0.02
		c0.38-0.14,0.83-0.25,1.17-0.3l0.09-0.01l0.01-0.08c0.22-1.21,0.42-2.23,0.68-3.31c0.28-0.7,0.78-1.47,1.18-2.06
		c0.31-0.43,0.57-0.66,0.77-0.66c0.17,0,0.34,0.09,0.49,0.25c0.13,0.13,0.32,0.13,0.52,0c0.2-0.15,0.37-0.34,0.48-0.53
		c0.15-0.26,0.16-0.58,0.02-0.84c-0.2-0.29-0.53-0.49-0.83-0.49C45.19,50.44,44.28,51.58,43.58,52.79"/>
	<path class="st0" d="M49.59,46.11c-0.42,0.14-1.13,0.37-2.03,0.48l-0.08,0l-0.13,0.63l0.67,0.02c0.29,0,0.46,0.02,0.51,0.09
		c0.06,0.07,0.02,0.3-0.02,0.53c-0.67,3.24-1.42,6.64-2.3,10.37l-0.01,0.07l0.23,0.2l0.06-0.03c0.31-0.12,0.69-0.22,1.2-0.32
		l0.07-0.02l0.53-2.66c0,0,0.05-0.22,0.05-0.25c0.15-0.25,0.42-0.53,0.79-0.9l0-0.01c0.46,1.27,0.92,2.32,1.22,2.98
		c0.39,0.84,0.75,1.19,1.22,1.19c0.22,0,1.02-0.12,1.97-1.6l0.04-0.08l-0.44-0.5l-0.09,0.1c-0.47,0.54-0.78,0.74-0.87,0.74
		c-0.14,0-0.3-0.22-0.56-0.74c-0.37-0.69-1.05-2.18-1.36-3.26c0.59-0.64,1.43-1.31,2.07-1.31c0.28,0,0.46,0.06,0.59,0.12
		c0.11,0.05,0.26,0.02,0.4-0.1c0.19-0.19,0.38-0.52,0.38-0.76c0-0.31-0.29-0.64-0.83-0.64c-0.66,0-1.69,0.7-3.05,2.08
		c0,0-0.02,0.01-0.02,0.01c-0.39,0.37-0.76,0.74-1.16,1.18c0.15-0.67,1.6-7.1,1.6-7.1c0.03-0.14,0.05-0.26,0.05-0.36
		c0-0.08-0.01-0.14-0.06-0.19C50.21,46.02,50.14,46,50.06,46C49.96,46,49.83,46.05,49.59,46.11"/>
	<path class="st0" d="M56.87,46.13c-0.45,0.15-1.13,0.37-2,0.46l-0.09,0l-0.07,0.66h0.62c0.24,0,0.43,0.01,0.49,0.08
		c0.07,0.08,0.03,0.35-0.05,0.72c-0.66,3.5-1.41,6.94-2.13,10.15l-0.01,0.06l0.21,0.24l0.08-0.03c0.37-0.14,0.8-0.25,1.18-0.32
		l0.08-0.01l0.02-0.08c0.16-0.86,0.46-2.34,0.62-3.05c0.82-1.45,2.76-3.3,3.47-3.3c0.05,0,0.08,0.02,0.08,0.03
		c0.06,0.08,0.1,0.32-0.06,1.03l-0.9,3.93c-0.2,0.84-0.2,1.36,0,1.6c0.09,0.12,0.23,0.18,0.4,0.18c0.52,0,1.59-0.59,2.53-1.67
		l0.05-0.06l-0.33-0.61l-0.11,0.1c-0.51,0.48-0.98,0.75-1.09,0.75c0.01-0.01-0.01-0.1,0.06-0.47l0.88-3.78
		c0.24-1.04,0.22-1.72-0.05-2.05c-0.13-0.16-0.31-0.24-0.54-0.24c-0.33,0-0.74,0.13-1.19,0.37c-0.49,0.26-1.7,1.02-2.9,2.5
		c0.17-0.77,1.43-6.59,1.43-6.59c0.04-0.2,0.07-0.34,0.07-0.45c0-0.1-0.02-0.15-0.06-0.2c-0.04-0.06-0.1-0.08-0.19-0.08
		C57.27,46,57.12,46.05,56.87,46.13"/>
	<path class="st0" d="M64.55,51c-1.27,0.67-2.63,2.27-2.63,4.72c0,1.33,0.61,2.76,2.35,2.76c0.88,0,1.84-0.39,2.68-1.09
		c1.12-0.94,1.85-2.58,1.85-4.19c0-1.72-0.89-2.75-2.37-2.75C65.91,50.45,65.2,50.65,64.55,51 M63.57,55.64
		c0-2.49,1.06-3.89,1.72-4.18c0.16-0.07,0.35-0.13,0.6-0.13c0.78,0,1.25,0.71,1.25,1.91c0,2.15-0.92,3.88-1.77,4.24
		c-0.16,0.06-0.31,0.09-0.49,0.09C64.06,57.56,63.57,56.84,63.57,55.64"/>
	<path class="st0" d="M76.77,50.44l-1.25,0.47c0,0-0.61,2.72-0.62,2.75c-0.71,1.33-2.55,3.42-3.4,3.42c-0.04,0-0.07-0.01-0.1-0.04
		c-0.06-0.07-0.13-0.28,0.01-0.93l0.64-2.8l0.29-1.26c0.2-0.85,0.22-1.26,0.06-1.47c-0.08-0.1-0.2-0.15-0.36-0.15
		c-0.54,0-1.64,0.69-2.57,1.62l-0.06,0.06l0.28,0.62l0.12-0.1c0.65-0.52,1-0.74,1.1-0.76c0,0.01,0,0.03,0,0.05
		c0,0.06-0.01,0.17-0.06,0.36l-0.74,3.14l-0.18,0.75c-0.11,0.47-0.17,0.86-0.17,1.18c0,0.37,0.08,0.65,0.22,0.84
		c0.15,0.19,0.36,0.28,0.61,0.28c0.44,0,0.95-0.2,1.44-0.55c0.78-0.54,1.67-1.42,2.48-2.44c-0.01,0.08-0.23,1.05-0.23,1.05
		c-0.11,0.48-0.16,0.87-0.16,1.16c0,0.28,0.05,0.48,0.15,0.61c0.09,0.11,0.22,0.17,0.38,0.17c0.59,0,1.73-0.8,2.54-1.76l0.05-0.07
		l-0.34-0.62l-0.11,0.12c-0.46,0.48-1,0.81-1.12,0.84c0-0.01,0-0.03,0-0.07c0-0.08,0.01-0.2,0.06-0.45
		c0.37-1.95,0.79-3.83,1.32-5.88l0.04-0.14H76.77z"/>
	<path class="st0" d="M79.48,51.29c-0.63,0.55-0.92,1.09-0.92,1.73c0,0.93,0.79,1.6,1.52,2.16c0.78,0.61,0.94,0.94,0.94,1.32
		c0,0.51-0.43,0.9-1,0.9c-0.54,0-1.12-0.38-1.52-0.98c-0.07-0.11-0.25-0.25-0.58-0.09c-0.37,0.22-0.57,0.52-0.55,0.82v0
		c0,0.65,0.94,1.34,1.82,1.34c1.39,0,3.18-1.3,3.18-2.67c0-0.83-0.49-1.34-1.47-2.07c-0.6-0.46-1.06-0.86-1.06-1.42
		c0-0.54,0.4-0.82,0.8-0.82c0.45,0,0.83,0.22,1.23,0.72c0.14,0.19,0.32,0.22,0.53,0.09c0.29-0.18,0.47-0.47,0.47-0.79
		c0-0.51-0.61-1.07-1.44-1.07C80.87,50.44,80.03,50.81,79.48,51.29"/>
	<path class="st0" d="M85.3,51.41c-1.26,0.96-2.08,2.72-2.08,4.48c0,2.4,1.52,2.59,1.98,2.59c0.83,0,2.15-0.34,3.65-1.96l0.07-0.06
		l-0.42-0.58l-0.1,0.09c-0.81,0.8-1.71,1.27-2.39,1.27c-1.04,0-1.19-1.12-1.19-1.79c0-0.15,0-0.28,0.02-0.45
		c2.06-0.53,4.48-1.48,4.48-3.1c0-0.83-0.69-1.47-1.61-1.47C87,50.44,86.08,50.82,85.3,51.41 M86.44,51.56L86.44,51.56
		c0.18-0.11,0.43-0.19,0.63-0.19c0.46,0,0.73,0.32,0.73,0.82c0,0.83-0.94,1.49-2.85,2.03C85.29,52.35,86.17,51.71,86.44,51.56
		 M86.32,51.36L86.32,51.36L86.32,51.36z"/>
	<path class="st1" d="M46.36,10.5c5.15,0,9.34,4.18,9.34,9.34c0,5.16-4.19,9.34-9.34,9.34c-0.9,0-1.76-0.13-2.58-0.36v1.26
		c0.83,0.21,1.69,0.33,2.58,0.33c2.91,0,5.55-1.19,7.46-3.1c1.91-1.91,3.1-4.55,3.1-7.46c0-2.91-1.19-5.54-3.1-7.46
		c-1.91-1.92-4.55-3.1-7.46-3.1c-5.78,0-10.49,4.82-10.58,10.56v16.79c0.4,0.26,0.81,0.48,1.23,0.71v-17.5
		C37.15,14.81,41.29,10.5,46.36,10.5"/>
	<path class="st1" d="M46.36,4.32c8.56,0,15.54,6.97,15.54,15.53c0,8.57-6.97,15.53-15.54,15.53c-0.88,0-1.74-0.08-2.58-0.21v1.22
		c0.84,0.14,1.7,0.21,2.58,0.21c4.62,0,8.81-1.88,11.84-4.92c3.02-3.03,4.91-7.22,4.91-11.84c0-4.61-1.88-8.8-4.91-11.83
		c-3.04-3.03-7.22-4.92-11.84-4.92c-9.18,0-16.66,7.6-16.76,16.75l0,10.64c0.38,0.59,0.78,1.16,1.22,1.71V19.84
		C30.89,11.34,37.83,4.32,46.36,4.32"/>
	<path class="st1" d="M46.36,7.41c6.85,0,12.44,5.58,12.44,12.44c0,6.86-5.58,12.44-12.44,12.44c-0.88,0-1.74-0.1-2.58-0.28v1.25
		c0.84,0.16,1.7,0.24,2.58,0.24c3.77,0,7.18-1.53,9.65-4c2.47-2.47,4.01-5.89,4.01-9.65c0-3.76-1.54-7.18-4.01-9.65
		c-2.47-2.47-5.88-4-9.65-4c-7.48,0-13.57,6.21-13.66,13.65l0,14.39c0.39,0.36,0.8,0.72,1.21,1.06V19.85
		C34.05,13.11,39.58,7.41,46.36,7.41"/>
	<path class="st1" d="M60.39,5.82C56.8,2.22,51.84,0,46.36,0C35.45,0,26.61,8.97,26.52,19.84c0,0-0.1,3.56,1.21,6.86v-6.86
		C27.8,9.63,36.12,1.22,46.36,1.22c10.27,0,18.62,8.36,18.63,18.62c0,10.27-8.36,18.63-18.63,18.63c-0.88,0-1.74-0.06-2.58-0.18
		v1.23c0.85,0.11,1.71,0.18,2.58,0.18c5.48,0,10.44-2.23,14.03-5.82c3.59-3.6,5.82-8.56,5.82-14.04S63.98,9.4,60.39,5.82"/>
	<path class="st1" d="M52.62,19.84c0,3.46-2.81,6.26-6.26,6.26c-0.92,0-1.79-0.2-2.58-0.57v1.32c0.8,0.29,1.67,0.46,2.58,0.46
		c2.06,0,3.92-0.84,5.29-2.18c1.35-1.36,2.19-3.23,2.19-5.29c0-2.06-0.84-3.93-2.19-5.29c-1.36-1.35-3.23-2.18-5.29-2.18
		c-4.07,0-7.39,3.43-7.48,7.47v18.39c0.4,0.16,0.8,0.32,1.22,0.45V19.84c0.07-3.4,2.83-6.26,6.26-6.26
		C49.81,13.58,52.62,16.39,52.62,19.84"/>
</g>
</svg>
