<?xml version="1.0" encoding="utf-8"?>
<!-- Generator: Adobe Illustrator 24.0.0, SVG Export Plug-In . SVG Version: 6.00 Build 0)  -->
<svg version="1.1" id="Layer_1" xmlns="http://www.w3.org/2000/svg" xmlns:xlink="http://www.w3.org/1999/xlink" x="0px" y="0px"
	 viewBox="0 0 208.46 55.9" style="enable-background:new 0 0 208.46 55.9;" xml:space="preserve">
<style type="text/css">
	.st0{clip-path:url(#SVGID_2_);}
</style>
<g>
	<defs>
		<rect id="SVGID_1_" y="0" width="208.46" height="55.9"/>
	</defs>
	<clipPath id="SVGID_2_">
		<use xlink:href="#SVGID_1_"  style="overflow:visible;"/>
	</clipPath>
	<path class="st0" d="M15.24,14.36c-1.02,0.22-1.4,0.58-1.93,1.2c-2.1-1.3-3.5-3.43-4.37-5.74C8.36,8.29,7.78,6.23,7.69,2.05
		C7.62,2.06,7.59,2.06,7.5,2.08C7.33,7.89,6.21,13.3,0.11,15.5l-0.07-0.14c2.08-1.25,3.86-3.57,4.66-5.22
		c1.23-2.54,1.5-6.16,1.5-8.08c0-0.82-0.07-1.02-0.15-1.3L8.12,1.3c0.29,0.07,0.34,0.1,0.34,0.24c0,0.27-0.27,0.38-0.44,0.43
		c0.12,2.97,1.03,6.56,2.61,8.83c1.66,2.34,3.77,3.12,4.63,3.43L15.24,14.36z"/>
	<path class="st0" d="M29.91,7.66c-1.66,0.32-3.24,0.94-4.8,1.6c0.05,0.29,0.17,1.02,0.17,2.02c0,0.36,0,1.48-0.61,1.48
		c-0.63,0-0.63-0.97-0.63-1.26c0-0.26,0-1.42-0.02-1.68c-1.14,0.72-2.44,1.96-2.44,2.89c0,1.3,2.24,1.3,2.73,1.3
		c0.92,0,1.96-0.17,2.61-0.29c0.33-0.05,0.43-0.07,0.6-0.07c0.73,0,1.02,0.45,1.02,0.75c0,0.31-0.31,0.5-0.53,0.55
		c-0.31,0.07-1.83,0.17-2.61,0.17c-0.94,0-4.52,0-4.52-2.12c0-1.61,2.1-3.16,3.07-3.81c-0.15-0.9-0.39-1.76-1.47-1.76
		c-1.04,0-1.86,1.02-2.14,1.47c-0.77,1.2-0.84,1.21-1.13,1.21c-0.41,0-0.49-0.29-0.49-0.7c0-0.61,0.19-0.77,0.38-0.94
		c1.21-1.04,2.08-2.42,2.92-3.81c-0.51,0.09-1.01,0.17-1.52,0.17c-1.16,0-1.72-0.63-1.69-1.52c0.53,0.49,1.01,0.63,1.76,0.63
		c0.72,0,1.71-0.15,1.98-0.2C22.8,3.36,23.5,2.1,23.5,1.81c0-0.24-0.38-0.6-1.16-0.7c0.19-0.19,0.44-0.41,1.04-0.41
		c0.84,0,1.55,0.63,1.55,0.99c0,0.24-0.15,0.44-0.27,0.6c-0.36,0.43-0.41,0.49-0.89,1.19c0.38-0.1,2.02-0.78,2.37-0.78
		c0.41,0,0.91,0.24,0.91,0.58c0,0.24-0.19,0.36-0.36,0.42c-0.78,0.34-2.66,0.65-3.63,0.8c-1.54,2.22-1.69,2.46-1.91,2.87
		c0.39-0.19,0.92-0.46,1.74-0.46c1.57,0,1.9,1.03,2.08,1.66c1.16-0.68,2.83-1.49,3.33-1.72c0.31-0.15,0.43-0.28,0.43-0.5
		c0-0.22-0.14-0.32-0.53-0.61c0.12-0.03,0.19-0.05,0.36-0.05c0.62,0,1.95,0.5,1.95,1.45C30.5,7.53,30.27,7.6,29.91,7.66"/>
	<path class="st0" d="M37.08,15.36c-0.55,0-0.68-0.44-0.85-1.01c-0.1-0.36-0.6-1.96-2.24-3.28l0.05-0.15
		c1.19,0.39,1.89,0.67,2.71,1.35c0.29,0.26,1.16,1.08,1.16,2.1C37.92,14.85,37.61,15.36,37.08,15.36"/>
	<path class="st0" d="M56.93,14.7c-0.51,0-0.67-0.44-0.8-0.89c-0.12-0.38-0.39-1.26-1.33-2.31l0.05-0.07
		c1.42,0.44,2.73,1.5,2.73,2.51C57.58,14.44,57.29,14.7,56.93,14.7 M55.23,7.17h-3.77v2.17h3.77V7.17z M55.23,4.64h-3.77v2.12h3.77
		V4.64z M55.23,2.13h-3.77v2.1h3.77V2.13z M56.32,2.65c-0.03,1.45,0.05,4.56,0.1,5.79c0,0.19,0.05,1.04,0.05,1.21
		c0,0.79-0.72,0.8-0.77,0.8c-0.54,0-0.51-0.36-0.49-0.7h-3.74c0.02,0.41-0.53,0.6-0.8,0.6c-0.49,0-0.49-0.36-0.49-0.5
		c0-0.22,0.07-1.21,0.07-1.42c0.07-2.05,0.08-3.45,0.08-4.76c0-1.4-0.03-1.73-0.19-2.56l1.38,0.61h3.5l0.46-0.43
		c0.07-0.05,0.22-0.17,0.29-0.17c0.12,0,0.32,0.15,0.38,0.19l0.56,0.41c0.1,0.09,0.21,0.17,0.21,0.31
		C56.92,2.27,56.66,2.44,56.32,2.65 M50.81,12.99c-0.43,0-0.58-0.36-0.73-0.75c-0.2-0.48-0.65-1.21-1.18-1.54l0.05-0.12
		c2.32,0.38,2.47,1.54,2.47,1.78C51.42,12.75,51.15,12.99,50.81,12.99 M53.98,15.19c-0.89,0.58-2.44,0.58-3.74,0.58
		c-3.53,0-3.53-0.22-3.53-2.12c0-0.88,0-2.12-0.12-2.68l1.57,0.44c0.1,0.03,0.22,0.09,0.22,0.21c0,0.24-0.33,0.46-0.51,0.56
		c0,0.31-0.02,1.66,0,1.93c0.02,0.38,0.15,0.45,0.31,0.46c0.21,0.03,1.57,0.09,2.22,0.09c1.96,0,2.15-0.2,2.37-0.46
		c0.41-0.46,0.77-1.47,0.92-1.91h0.09c0.1,1.09,0.17,1.59,0.48,1.76c0.17,0.1,0.26,0.15,0.26,0.32
		C54.51,14.65,54.26,15.02,53.98,15.19 M43.45,15.43c-0.39,0-0.65-0.31-0.65-0.65c0-0.38,0.14-0.48,0.74-0.95
		c0.97-0.78,1.21-1.6,1.31-1.98h0.1c0.03,0.26,0.07,0.51,0.07,0.87C45.02,14.63,44.1,15.43,43.45,15.43 M49.53,3.38h-2.29
		l-0.03,1.61c0.85,0.08,2.35,0.56,2.35,1.71c0,0.46-0.29,0.59-0.49,0.59c-0.48,0-0.7-0.41-0.9-0.8c-0.26-0.46-0.58-0.97-0.96-1.26
		c-0.02,0.72,0.07,3.91,0.07,4.56c0,0.77-0.84,0.77-0.9,0.77c-0.27,0-0.41-0.1-0.41-0.38c0-0.17,0.07-0.94,0.09-1.09
		c0.07-1.23,0.08-2.61,0.08-3.48V5.19c-0.41,0.77-1.52,2.51-4.03,4.05l-0.07-0.12c1.77-1.74,3.4-4.47,3.84-5.74h-0.79
		c-0.43,0-1.25,0.02-2.01,0.15l-0.34-0.68c1.06,0.08,2.12,0.12,2.63,0.12h0.77c0-1.62-0.08-1.9-0.32-2.58l1.66,0.44
		c0.24,0.07,0.27,0.17,0.27,0.29c0,0.17-0.08,0.26-0.49,0.53c0.02,0.48,0,0.79,0,1.32h0.48l0.51-0.68c0.1-0.14,0.17-0.22,0.26-0.22
		c0.08,0,0.19,0.07,0.32,0.19l0.8,0.68c0.1,0.09,0.17,0.2,0.17,0.27C49.78,3.36,49.65,3.38,49.53,3.38"/>
	<path class="st0" d="M68.95,3.29c-0.19,0-1.06-0.13-1.25-0.13c-0.6,0-1.28,0.29-1.79,0.51l-0.05-0.05
		c0.92-0.89,0.96-0.92,0.96-1.09c0-0.1-0.08-0.17-0.27-0.26c-1.03-0.48-1.43-0.65-1.98-1.38C64.22,0.44,64.22,0.24,64.22,0
		c0.79,0.73,1.38,0.9,3.42,1.43c1.19,0.32,1.86,0.87,1.86,1.4C69.5,3.23,69.23,3.29,68.95,3.29 M65.61,16.37l-0.09-0.1
		c3.59-2.44,4.06-6.08,4.06-7.51c0-1.11-0.32-3.01-1.74-3.01c-0.96,0-2.07,0.87-2.78,1.78c-0.7,0.87-0.9,1.13-1.26,1.13
		c-0.67,0-1.72-0.63-1.72-1.83c0-0.17,0.03-0.29,0.07-0.46c0.34,0.41,0.6,0.7,1.06,0.7c0.22,0,0.32,0,1.42-0.63
		c1.5-0.87,2.27-1.23,3.35-1.23c2.54,0,2.95,2.44,2.95,3.69C70.92,12.27,68.75,15.18,65.61,16.37"/>
	<path class="st0" d="M88.7,4.45l0.6-0.6c0.09-0.08,0.19-0.17,0.29-0.17c0.09,0,0.15,0.05,0.22,0.1l0.85,0.72
		c0.09,0.09,0.24,0.2,0.24,0.31c0,0.08-0.08,0.17-0.14,0.22c-0.07,0.07-0.38,0.31-0.51,0.41c-0.24,7.87-0.31,10.22-4.49,10.53
		c-0.1-0.85-1.21-1.66-2.03-2.01l0.03-0.12c0.46,0.12,1.72,0.41,2.78,0.41c0.61,0,1.28-0.07,1.74-1.13
		c0.27-0.65,0.72-4.47,0.72-6.86c0-0.37-0.02-1.08-0.03-1.4h-4.93c-0.14,1.59-0.41,3.74-1.43,5.77c-1.26,2.53-3.48,4.49-6.23,5.19
		l-0.07-0.14c2.37-1.16,5.98-4.13,6.37-10.82h-3.57c-0.44,0-1.26,0.02-2.01,0.15l-0.33-0.68c1.4,0.12,2.41,0.12,2.61,0.12h3.31
		c0.1-2.25-0.17-3.4-0.36-4.2l2.08,0.66c0.05,0.02,0.36,0.12,0.36,0.29c0,0.17-0.07,0.22-0.67,0.67c0.02,0.55,0.03,1.37-0.03,2.58
		H88.7z"/>
	<path class="st0" d="M96.3,10.94c-1.09,0-1.96,0.92-1.96,2.01c0,1.09,0.85,2.03,1.96,2.03c1.11,0,1.98-0.92,1.98-2.01
		C98.28,11.85,97.39,10.94,96.3,10.94 M96.3,15.48c-1.38,0-2.46-1.14-2.46-2.53c0-1.4,1.11-2.51,2.46-2.51
		c1.37,0,2.47,1.11,2.47,2.51C98.77,14.34,97.7,15.48,96.3,15.48"/>
	<path class="st0" d="M122.44,2.56l0.43-0.65c0.07-0.1,0.17-0.2,0.27-0.2c0.12,0,0.22,0.1,0.36,0.2l0.75,0.62
		c0.1,0.08,0.17,0.13,0.17,0.27c0,0.15-0.15,0.17-0.27,0.17h-3c-0.17,0-0.6,0.02-0.92,0.05L120,2.49c0.6,0.03,1.08,0.07,1.3,0.07
		H122.44z M122.59,7.01v3.72c0,0.27,0.05,2.78,0.05,3.29c0,0.85-0.15,1.5-1.94,2.03c-0.15-0.48-0.31-0.97-1.43-1.67v-0.1
		c0.36,0.05,0.84,0.09,1.13,0.09c0.87,0,1.08-0.07,1.08-0.56V7.03c-0.1,0-0.44,0-0.78,0.05l-0.22-0.53c0.41,0.03,0.87,0.05,1.3,0.05
		h1.11l0.58-0.75c0.12-0.15,0.17-0.24,0.29-0.24c0.1,0,0.26,0.16,0.46,0.36l0.6,0.6c0.1,0.1,0.17,0.15,0.17,0.31
		c0,0.14-0.14,0.14-0.27,0.14H122.59 M117.97,3.58l0.44-0.55c0.1-0.14,0.17-0.2,0.27-0.2c0.08,0,0.17,0.07,0.31,0.17l0.73,0.55
		c0.12,0.09,0.17,0.15,0.17,0.27c0,0.14-0.13,0.17-0.27,0.17h-2.63v2.53h1.23l0.56-0.67c0.05-0.07,0.14-0.21,0.26-0.21
		c0.1,0,0.21,0.09,0.33,0.19l0.78,0.63c0.12,0.08,0.17,0.19,0.17,0.27c0,0.15-0.15,0.19-0.27,0.19h-4.49
		c-0.44,0-1.33,0.03-2.01,0.15l-0.32-0.68c1.21,0.1,2.41,0.12,2.71,0.12V3.99c-0.6,0-1.42,0-2.24,0.15l-0.34-0.67
		c0.96,0.07,1.13,0.07,2.58,0.1c-0.05-2.15-0.05-2.39-0.31-3.28l1.67,0.53c0.2,0.07,0.29,0.1,0.29,0.26c0,0.19-0.12,0.24-0.56,0.53
		c-0.02,0.33-0.03,1.69-0.03,1.96H117.97 M113.29,9.46c1.18,0.1,1.81,0.1,2.61,0.12c0-1.5,0-1.66-0.1-2.41l1.43,0.27
		c0.15,0.03,0.26,0.09,0.26,0.21c0,0.15-0.05,0.19-0.51,0.51v1.42h0.89l0.61-0.67c0.14-0.15,0.17-0.22,0.27-0.22
		c0.08,0,0.15,0.07,0.31,0.19l0.8,0.67c0.1,0.09,0.19,0.17,0.19,0.26c0,0.15-0.14,0.19-0.27,0.19h-2.8v2.47
		c1.23-0.21,2.46-0.44,3.67-0.75l0.04,0.12c-2.31,1.09-4.03,1.62-6.16,2.22c-0.1,0.24-0.19,0.39-0.36,0.39
		c-0.1,0-0.22-0.12-0.26-0.2l-0.72-1.55c0.24,0.02,0.58,0.07,0.91,0.07c0.27,0,1.07-0.05,1.81-0.15V9.99c-0.65,0-1.43,0-2.27,0.15
		L113.29,9.46 M113.51,4.95c0.14,0.1,0.24,0.19,0.24,0.29c0,0.15-0.15,0.2-0.6,0.27c-0.24,0.41-0.44,0.72-0.72,1.09
		c0.45,0.2,0.51,0.26,0.51,0.39c0,0.15-0.17,0.26-0.48,0.44c0,1.14,0,4.75,0.03,5.89c0,0.26,0.07,1.59,0.07,1.88
		c0,0.14,0,0.29-0.07,0.41c-0.1,0.15-0.48,0.36-0.82,0.36c-0.42,0-0.42-0.37-0.42-0.55c0-0.43,0.1-2.66,0.12-3.16
		c0.02-1.19,0.05-2.88,0.02-4.35c-1.18,1.32-2,1.85-2.44,2.12l-0.07-0.05c2.56-3.12,3.26-5.43,3.38-5.91L113.51,4.95 M113.78,1.4
		c0.09,0.08,0.15,0.15,0.15,0.27c0,0.17-0.12,0.21-0.7,0.26c-0.89,0.97-2.39,2.44-4.4,3.24l-0.02-0.07
		c2.13-1.71,3.53-3.98,3.79-4.83L113.78,1.4"/>
	<path class="st0" d="M139.41,7.68c-1.66,0.32-3.24,0.94-4.8,1.6c0.05,0.29,0.17,1.03,0.17,2.02c0,0.36,0,1.48-0.61,1.48
		c-0.63,0-0.63-0.97-0.63-1.26c0-0.25,0-1.42-0.02-1.67c-1.14,0.72-2.44,1.96-2.44,2.88c0,1.3,2.24,1.3,2.73,1.3
		c0.92,0,1.96-0.17,2.61-0.29c0.32-0.05,0.43-0.07,0.6-0.07c0.73,0,1.02,0.44,1.02,0.75c0,0.31-0.31,0.49-0.53,0.55
		c-0.31,0.07-1.83,0.17-2.61,0.17c-0.94,0-4.52,0-4.52-2.12c0-1.61,2.1-3.16,3.07-3.81c-0.15-0.9-0.39-1.76-1.47-1.76
		c-1.04,0-1.86,1.03-2.13,1.47c-0.77,1.19-0.84,1.21-1.13,1.21c-0.41,0-0.5-0.29-0.5-0.7c0-0.62,0.19-0.77,0.38-0.94
		c1.21-1.04,2.08-2.42,2.92-3.8c-0.51,0.08-1.01,0.17-1.52,0.17c-1.16,0-1.72-0.63-1.69-1.52c0.53,0.49,1.01,0.63,1.76,0.63
		c0.72,0,1.71-0.15,1.98-0.21c0.24-0.39,0.94-1.66,0.94-1.95c0-0.24-0.38-0.6-1.16-0.7c0.19-0.19,0.44-0.41,1.04-0.41
		c0.84,0,1.55,0.63,1.55,0.99c0,0.24-0.16,0.44-0.27,0.6c-0.36,0.43-0.41,0.49-0.89,1.19c0.38-0.1,2.01-0.79,2.37-0.79
		c0.41,0,0.9,0.24,0.9,0.58c0,0.24-0.19,0.36-0.36,0.43c-0.79,0.34-2.66,0.65-3.64,0.8c-1.54,2.22-1.69,2.46-1.91,2.87
		c0.39-0.19,0.92-0.46,1.74-0.46c1.57,0,1.89,1.02,2.08,1.65c1.16-0.68,2.83-1.48,3.33-1.72c0.31-0.16,0.43-0.27,0.43-0.5
		c0-0.22-0.14-0.33-0.53-0.62c0.12-0.03,0.19-0.05,0.36-0.05c0.61,0,1.95,0.5,1.95,1.45C139.99,7.54,139.76,7.61,139.41,7.68"/>
	<path class="st0" d="M146.57,15.38c-0.55,0-0.68-0.44-0.85-1.01c-0.1-0.36-0.6-1.96-2.24-3.28l0.05-0.15
		c1.19,0.39,1.89,0.66,2.71,1.35c0.29,0.26,1.16,1.08,1.16,2.1C147.41,14.87,147.1,15.38,146.57,15.38"/>
	<path class="st0" d="M166.43,14.71c-0.51,0-0.67-0.44-0.8-0.89c-0.12-0.38-0.39-1.26-1.33-2.31l0.05-0.07
		c1.42,0.44,2.73,1.5,2.73,2.51C167.08,14.46,166.79,14.71,166.43,14.71 M164.72,7.19h-3.77v2.17h3.77V7.19z M164.72,4.66h-3.77
		v2.12h3.77V4.66z M164.72,2.15h-3.77v2.1h3.77V2.15z M165.81,2.66c-0.03,1.45,0.05,4.56,0.1,5.79c0,0.19,0.05,1.04,0.05,1.21
		c0,0.78-0.72,0.8-0.77,0.8c-0.55,0-0.51-0.36-0.49-0.7h-3.74c0.02,0.41-0.53,0.6-0.8,0.6c-0.49,0-0.49-0.36-0.49-0.49
		c0-0.22,0.07-1.21,0.07-1.42c0.07-2.05,0.09-3.45,0.09-4.76c0-1.4-0.03-1.72-0.19-2.56l1.38,0.62h3.5l0.46-0.43
		c0.07-0.05,0.22-0.17,0.29-0.17c0.12,0,0.33,0.15,0.38,0.19l0.56,0.41c0.1,0.08,0.21,0.17,0.21,0.31
		C166.41,2.29,166.15,2.46,165.81,2.66 M160.3,13c-0.43,0-0.58-0.36-0.74-0.75c-0.2-0.48-0.65-1.21-1.18-1.53l0.05-0.12
		c2.32,0.37,2.48,1.54,2.48,1.77C160.91,12.77,160.64,13,160.3,13 M163.47,15.21c-0.89,0.58-2.44,0.58-3.74,0.58
		c-3.53,0-3.53-0.22-3.53-2.12c0-0.89,0-2.12-0.12-2.68l1.57,0.44c0.1,0.03,0.22,0.08,0.22,0.21c0,0.24-0.32,0.46-0.51,0.56
		c0,0.31-0.02,1.66,0,1.93c0.02,0.38,0.15,0.44,0.31,0.46c0.2,0.03,1.57,0.08,2.22,0.08c1.96,0,2.15-0.2,2.37-0.46
		c0.41-0.46,0.77-1.47,0.92-1.91h0.09c0.1,1.09,0.17,1.59,0.48,1.76c0.17,0.1,0.26,0.15,0.26,0.33
		C164,14.66,163.75,15.04,163.47,15.21 M152.94,15.45c-0.39,0-0.65-0.31-0.65-0.65c0-0.38,0.14-0.48,0.73-0.95
		c0.97-0.79,1.21-1.6,1.32-1.98h0.1c0.03,0.26,0.07,0.51,0.07,0.87C154.51,14.64,153.59,15.45,152.94,15.45 M159.02,3.4h-2.29
		L156.7,5c0.85,0.09,2.35,0.57,2.35,1.71c0,0.46-0.29,0.6-0.49,0.6c-0.48,0-0.7-0.41-0.9-0.81c-0.26-0.46-0.58-0.97-0.96-1.26
		c-0.02,0.72,0.07,3.91,0.07,4.56c0,0.77-0.84,0.77-0.9,0.77c-0.27,0-0.41-0.1-0.41-0.37c0-0.17,0.07-0.94,0.09-1.09
		c0.07-1.23,0.08-2.61,0.08-3.48V5.21c-0.41,0.77-1.52,2.51-4.03,4.04l-0.07-0.12c1.77-1.74,3.4-4.47,3.84-5.74h-0.79
		c-0.43,0-1.25,0.02-2.01,0.15l-0.34-0.68c1.06,0.08,2.12,0.12,2.63,0.12h0.77c0-1.62-0.08-1.89-0.32-2.58l1.66,0.44
		c0.24,0.07,0.27,0.17,0.27,0.29c0,0.17-0.08,0.26-0.49,0.53c0.02,0.48,0,0.79,0,1.31h0.48l0.51-0.68c0.1-0.14,0.17-0.22,0.26-0.22
		c0.08,0,0.19,0.07,0.32,0.19l0.8,0.68c0.1,0.09,0.17,0.2,0.17,0.27C159.28,3.38,159.14,3.4,159.02,3.4"/>
	<path class="st0" d="M178.44,3.31c-0.19,0-1.06-0.14-1.25-0.14c-0.6,0-1.28,0.29-1.79,0.51l-0.05-0.05
		c0.92-0.89,0.96-0.92,0.96-1.09c0-0.1-0.08-0.17-0.27-0.26c-1.02-0.48-1.43-0.65-1.98-1.38c-0.34-0.45-0.34-0.65-0.34-0.89
		c0.79,0.73,1.38,0.9,3.41,1.43c1.2,0.33,1.86,0.87,1.86,1.4C178.99,3.24,178.72,3.31,178.44,3.31 M175.1,16.39l-0.09-0.1
		c3.58-2.44,4.06-6.08,4.06-7.51c0-1.11-0.32-3-1.74-3c-0.96,0-2.07,0.87-2.78,1.77c-0.7,0.87-0.91,1.13-1.26,1.13
		c-0.66,0-1.72-0.63-1.72-1.82c0-0.17,0.04-0.29,0.07-0.46c0.34,0.41,0.6,0.7,1.06,0.7c0.22,0,0.32,0,1.41-0.63
		c1.5-0.87,2.27-1.23,3.35-1.23c2.54,0,2.95,2.44,2.95,3.69C180.41,12.29,178.24,15.19,175.1,16.39"/>
	<path class="st0" d="M198.19,4.47l0.6-0.6c0.09-0.09,0.19-0.17,0.29-0.17c0.09,0,0.15,0.05,0.22,0.11l0.85,0.72
		c0.09,0.08,0.24,0.2,0.24,0.31c0,0.08-0.08,0.17-0.13,0.22c-0.07,0.07-0.38,0.31-0.51,0.41c-0.24,7.87-0.31,10.22-4.49,10.53
		c-0.1-0.85-1.21-1.66-2.03-2.01l0.03-0.12c0.46,0.12,1.72,0.41,2.78,0.41c0.61,0,1.28-0.07,1.74-1.13
		c0.27-0.65,0.72-4.47,0.72-6.86c0-0.38-0.02-1.08-0.03-1.4h-4.93c-0.14,1.59-0.41,3.74-1.43,5.77c-1.26,2.53-3.48,4.49-6.23,5.19
		l-0.07-0.14c2.37-1.16,5.98-4.13,6.37-10.82h-3.57c-0.44,0-1.26,0.02-2.01,0.15l-0.32-0.68c1.4,0.12,2.41,0.12,2.61,0.12h3.31
		c0.1-2.25-0.17-3.4-0.36-4.2l2.08,0.67c0.05,0.02,0.36,0.12,0.36,0.29c0,0.17-0.07,0.22-0.67,0.67c0.02,0.55,0.04,1.37-0.03,2.58
		H198.19z"/>
	<path class="st0" d="M205.79,10.96c-1.09,0-1.96,0.92-1.96,2.02c0,1.09,0.85,2.03,1.96,2.03c1.11,0,1.98-0.92,1.98-2.02
		C207.77,11.86,206.88,10.96,205.79,10.96 M205.79,15.5c-1.38,0-2.46-1.14-2.46-2.52c0-1.4,1.11-2.51,2.46-2.51
		c1.36,0,2.47,1.11,2.47,2.51C208.26,14.35,207.19,15.5,205.79,15.5"/>
	<path class="st0" d="M156.68,40.31c-0.3,4.05-1.61,9.17-6.14,10.67V33.42h-3.58v22.17l0.06-0.01c8.27-0.75,12.73-5.89,13.26-15.27
		l0-0.06h-3.6L156.68,40.31z M164.71,44.84h18.96v-3.5h-18.96V44.84z M140.41,40.49c0,7.07-1.66,9.33-3.51,11.2l-0.02,0.02v4.18
		l0.08-0.05c4.44-2.71,7.02-6.14,7.02-15.61v-6.79h-3.58V40.49 M205.75,35.27c-0.64,0-1.18-0.54-1.18-1.18c0-0.65,0.54-1.2,1.18-1.2
		c0.66,0,1.2,0.54,1.2,1.2C206.96,34.73,206.41,35.27,205.75,35.27 M205.75,31.39c-1.37,0-2.54,1.11-2.64,2.49h-18.13v3.45h16.73
		c-0.76,7.9-5.65,13.12-13.75,14.72l-0.04,0.01v3.42l0.06-0.01c10.46-1.31,16.92-8.14,17.73-18.74h0.05c1.49,0,2.7-1.19,2.7-2.65
		C208.46,32.6,207.24,31.39,205.75,31.39 M132.89,33.83h-0.81v-2.08h-2.3v2.08H116.3l-0.01,0.04c-0.78,3.38-2.71,6.21-5.43,7.96
		l-0.03,0.02v3.76l0.07-0.03c3.54-1.32,6.59-4.44,8.16-8.32h10.21c-1.09,8.9-6.08,13.93-14.82,14.95l-0.05,0.01v3.4l0.06-0.01
		c11.45-0.9,17.94-7.79,18.76-19.92h1.93v-3.94h-2.27V33.83 M0,54.25h23.23v-3.3H0V54.25z M98.85,36.05h0.2
		c1.18,0,5.17-0.16,7.04-0.65c0-0.12,0.01-2.96,0.01-3.15c-4.45,0.72-5.78,0.72-10.1,0.72h-0.55v8.81c0,3.93-0.46,9.84-1.74,13.7
		h3.48c0.85-2.25,1.57-10.03,1.65-13.1h2.7v13.1h3.32v-13.1h1.92v-3.15h-7.94V36.05 M90.79,44.77h-3.61v-4.02h3.61V44.77z
		 M93.79,37.74h-9.97v7.53c0,1.34-0.1,6.03-1.33,10.22h3.44c0.54-1.44,0.96-4.87,1.14-7.66l0.01-0.19h6.7V37.74 M22.13,33.77H1.1
		v3.3h21.03V33.77z M93.79,32.97H83.56v2.97h10.24V32.97z M21.55,41.97H1.68v3.3h19.88V41.97z M39.17,51.32
		c-1.32-0.41-2.5-0.91-3.45-1.51h7.44C42.16,50.39,40.76,50.89,39.17,51.32 M49.5,47.94H37.82c1-0.71,1.92-1.54,2.66-2.54h-3.72
		c-3.51,2.69-7,3.28-8.99,3.69v2.49c0.47-0.05,2.24-0.29,4.39-0.95c0.72,0.6,1.53,1.15,2.43,1.65c-2.56,0.41-5.07,0.62-6.82,0.62
		v2.59c4.36,0,8.25-0.47,11.55-1.35c3.21,0.88,7.1,1.35,11.68,1.35V52.9c-2.04,0-4.49-0.15-6.9-0.51
		C46.46,51.21,48.3,49.72,49.5,47.94 M47.59,32.29h-3.11v0.94h-10.2v-0.94h-3.11v0.94h-3.41v2.41h3.41v0.95h3.11v-0.95h10.2v0.95
		h3.11v-0.95h3.41v-2.41h-3.41V32.29 M40.93,39.85h9.11v-2.37h-9.11v-1h-3.11v1H28.7v2.37h9.13v1.19H27.76v2.37h5.08
		c-1.4,1-3.5,1.63-5.08,1.85v2.46c1.51-0.17,6.34-1.05,9.1-4.32h4.88v1.78c0,1.12,0.74,1.74,2.08,1.74h7.16v-2.31h-5.35
		c-0.68,0-0.68-0.46-0.68-0.7v-0.52h6.03v-2.37H40.93V39.85 M72.87,32.29h-3.21v4.21c-0.69,0.18-1.54,0.4-2.42,0.63v-2.79h-3.19
		v3.61c-0.67,0.17-1.13,0.29-1.16,0.3v3.42c0.04-0.01,0.48-0.12,1.16-0.3v10.69c0,1.57,0.91,3.41,3.48,3.41h10.91V52.2h-9.72
		c-0.98,0-1.47-0.49-1.47-1.47V40.55c0.78-0.2,1.61-0.42,2.42-0.63v8.94h3.21v-9.77c1.42-0.37,2.42-0.63,2.42-0.63v10.4h3.15V34.22
		c-0.15,0.04-3.45,0.89-5.57,1.45V32.29 M60.26,39.9h1.53v-3.17h-1.53v-4.44h-3.21v4.44h-1.84v3.17h1.84v9.6
		c-0.7,0.17-1.34,0.32-1.84,0.41v3.51c1.56-0.29,6.08-1.75,7.67-2.55v-3.14c-0.64,0.26-1.59,0.58-2.62,0.89V39.9"/>
</g>
</svg>
