<?xml version="1.0" encoding="utf-8"?>
<!-- Generator: Adobe Illustrator 24.0.0, SVG Export Plug-In . SVG Version: 6.00 Build 0)  -->
<svg version="1.1" id="Layer_1" xmlns="http://www.w3.org/2000/svg" xmlns:xlink="http://www.w3.org/1999/xlink" x="0px" y="0px"
	 viewBox="0 0 327.23 37.74" style="enable-background:new 0 0 327.23 37.74;" xml:space="preserve">
<style type="text/css">
	.st0{fill:#E60013;}
	.st1{clip-path:url(#SVGID_2_);}
</style>
<polygon class="st0" points="7.26,25.15 0,37.73 14.52,37.74 21.79,25.15 "/>
<polygon class="st0" points="21.79,25.15 29.05,37.74 43.58,37.74 36.33,25.15 "/>
<polygon class="st0" points="21.79,0 14.53,12.58 21.79,25.15 29.06,12.57 "/>
<g>
	<defs>
		<rect id="SVGID_1_" y="0" width="327.23" height="37.74"/>
	</defs>
	<clipPath id="SVGID_2_">
		<use xlink:href="#SVGID_1_"  style="overflow:visible;"/>
	</clipPath>
	<path class="st1" d="M107.28,29.55H94.61c1.08-0.77,2.08-1.67,2.88-2.75h-4.04c-3.81,2.92-7.6,3.56-9.75,4v2.7
		c0.51-0.05,2.43-0.32,4.76-1.03c0.78,0.65,1.66,1.25,2.64,1.79c-2.78,0.44-5.5,0.67-7.4,0.67v2.81c4.73,0,8.94-0.51,12.53-1.47
		c3.48,0.96,7.71,1.47,12.67,1.47v-2.81c-2.21,0-4.87-0.17-7.49-0.55C103.98,33.1,105.98,31.48,107.28,29.55 M96.07,33.22
		c-1.43-0.44-2.71-0.99-3.74-1.64h8.07C99.32,32.21,97.79,32.75,96.07,33.22 M97.98,20.78h9.88v-2.56h-9.88v-1.08h-3.37v1.08h-9.9
		v2.56h9.9v1.3H83.7v2.57h5.51c-1.51,1.08-3.8,1.76-5.51,2.01v2.67c1.64-0.18,6.88-1.14,9.87-4.68h5.3v1.93
		c0,1.22,0.8,1.89,2.26,1.89h7.77v-2.5h-5.8c-0.74,0-0.74-0.49-0.74-0.76v-0.56h6.54v-2.57H97.98V20.78z M105.2,12.57h-3.37v1.02
		H90.77v-1.02h-3.37v1.02H83.7v2.61h3.69v1.03h3.37v-1.03h11.06v1.03h3.37v-1.03h3.69v-2.61h-3.69V12.57z M53.59,36.4h25.19v-3.58
		H53.59V36.4z M155.32,13.32h-11.11v3.22h11.11V13.32z M77.59,14.18H54.78v3.58h22.81V14.18z M76.96,23.07H55.4v3.58h21.56V23.07z
		 M118.95,20.83h1.66v-3.44h-1.66v-4.81h-3.48v4.81h-1.99v3.44h1.99v10.41c-0.76,0.19-1.45,0.34-1.99,0.44v3.81
		c1.7-0.32,6.59-1.9,8.31-2.76v-3.41c-0.69,0.29-1.72,0.63-2.84,0.97V20.83z M132.62,12.57h-3.48v4.57
		c-0.74,0.19-1.67,0.43-2.62,0.68V14.8h-3.46v3.92c-0.73,0.19-1.23,0.32-1.26,0.33v3.71c0.04-0.01,0.52-0.13,1.26-0.33v11.6
		c0,1.71,0.99,3.7,3.78,3.7h11.83v-3.56h-10.55c-1.06,0-1.6-0.54-1.6-1.6V21.53c0.85-0.22,1.74-0.45,2.62-0.68v9.69h3.48v-10.6
		c1.55-0.4,2.62-0.68,2.62-0.68v11.28h3.42V14.67c-0.16,0.04-3.74,0.97-6.05,1.57V12.57z M160.81,16.65h0.22
		c1.28,0,5.61-0.17,7.64-0.7c0-0.13,0.01-3.42,0.01-3.42c-4.83,0.79-6.27,0.79-10.96,0.78h-0.6v9.55c0,4.26-0.5,10.67-1.88,14.87
		h3.77c0.92-2.44,1.7-10.89,1.79-14.21h2.93v14.21h3.6V23.53h2.08v-3.41h-8.6V16.65z M155.32,18.49h-10.81v8.16
		c0,1.46-0.1,6.54-1.44,11.09h3.73c0.59-1.57,1.05-5.29,1.24-8.31l0.02-0.21h7.26V18.49z M152.06,26.11h-3.91v-4.36h3.91V26.11z"/>
	<path class="st1" d="M172.58,37.36v-4.35c4.19-4.16,5.55-10.47,5.55-17.75v-1.61h3.94v1.48C182.08,26.66,178.74,33.8,172.58,37.36
		 M187.46,15.15v-1.5h3.94v1.61c0,7.28,1.4,13.57,5.58,17.75v4.35C190.8,33.8,187.46,26.63,187.46,15.15"/>
	<path class="st1" d="M206.34,37.36V33.8c8.18-1.26,12.55-5.66,12.83-13.89h-15.37v6.15h-3.67v-9.57h9.41v-3.8h3.91v3.8h9.9v0.82
		C223.35,29.2,218.34,35.8,206.34,37.36"/>
	<path class="st1" d="M240.65,28.6c-3.94,4.43-9.14,7.22-13.92,8.42v-3.72c6.46-1.89,13.26-7.36,15.54-15.56h-14.19v-3.56h18.87
		c-0.49,4.27-1.86,7.93-3.77,10.99c1.67,3.91,4.62,6.43,7.3,8.07v4.05C246.12,35.55,242.75,32.32,240.65,28.6"/>
	<path class="st1" d="M267.7,26.61v11.13h-3.66v-9.05c-3.25,1.56-7.19,2.9-10.42,3.67v-3.56c3.97-1.07,7.6-2.46,10.86-4.27
		c2.54-1.4,4.84-3.03,6.86-4.9h-15.95v-3.44h8.45v-3.61h3.75v3.61h9.08v3.39C274.07,22.2,271.01,24.58,267.7,26.61 M269.42,29.72
		v-3.56c3.2,0.71,6.54,1.7,9.19,2.71v3.77C275.66,31.53,272.37,30.52,269.42,29.72"/>
	<path class="st1" d="M283.94,27.23c-0.36-2.82-1.26-7.03-2.19-10.04h3.55c0.88,2.76,1.72,6.78,2.3,10.04H283.94z M286.38,37.35
		v-3.45c9.35-1.91,12.31-7.3,12.42-16.44v-0.41h3.8v0.44C302.4,29.61,296.91,35.66,286.38,37.35 M291.14,26.96
		c-0.38-2.9-1.23-6.95-2.05-10.01h3.53c0.88,2.76,1.61,6.48,2.19,10.01H291.14z"/>
	<path class="st1" d="M311.23,24.58v12.77h-3.91V12.9h3.91v7.88c5.52,1.15,10.86,2.32,16,3.8v3.91
		C321.67,26.93,316.31,25.65,311.23,24.58"/>
</g>
</svg>
