<?xml version="1.0" encoding="utf-8"?>
<!-- Generator: Adobe Illustrator 24.0.0, SVG Export Plug-In . SVG Version: 6.00 Build 0)  -->
<svg version="1.1" id="Layer_1" xmlns="http://www.w3.org/2000/svg" xmlns:xlink="http://www.w3.org/1999/xlink" x="0px" y="0px"
	 viewBox="0 0 277.8 33.85" style="enable-background:new 0 0 277.8 33.85;" xml:space="preserve">
<style type="text/css">
	.st0{fill:#E60013;}
	.st1{clip-path:url(#SVGID_2_);fill:#232021;}
</style>
<polygon class="st0" points="6.51,22.56 0,33.84 13.03,33.84 19.54,22.56 "/>
<polygon class="st0" points="19.54,22.56 26.05,33.84 39.09,33.84 32.58,22.56 "/>
<polygon class="st0" points="19.55,0 13.03,11.28 19.54,22.56 26.06,11.28 "/>
<g>
	<defs>
		<rect id="SVGID_1_" width="277.8" height="33.85"/>
	</defs>
	<clipPath id="SVGID_2_">
		<use xlink:href="#SVGID_1_"  style="overflow:visible;"/>
	</clipPath>
	<path class="st1" d="M96.21,26.5H84.86c0.97-0.69,1.86-1.5,2.58-2.46h-3.62c-3.42,2.62-6.81,3.19-8.74,3.59v2.42
		c0.46-0.05,2.18-0.28,4.27-0.93c0.69,0.59,1.49,1.12,2.37,1.6c-2.49,0.4-4.94,0.6-6.63,0.6v2.52c4.24,0,8.02-0.46,11.24-1.31
		c3.12,0.86,6.91,1.31,11.36,1.31v-2.52c-1.98,0-4.37-0.15-6.71-0.49C93.26,29.69,95.05,28.23,96.21,26.5 M86.17,29.79
		c-1.29-0.4-2.44-0.89-3.35-1.47h7.24C89.08,28.89,87.71,29.38,86.17,29.79 M106.68,18.68h1.49V15.6h-1.49v-4.32h-3.12v4.32h-1.79
		v3.09h1.79v9.34c-0.68,0.17-1.3,0.31-1.79,0.4v3.41c1.52-0.28,5.92-1.71,7.46-2.48v-3.06c-0.62,0.26-1.54,0.57-2.55,0.87V18.68z
		 M94.35,11.28h-3.02v0.92H81.4v-0.92h-3.02v0.92h-3.31v2.34h3.31v0.93h3.02v-0.93h9.92v0.93h3.02v-0.93h3.31v-2.34h-3.31V11.28z
		 M87.88,18.63h8.86v-2.3h-8.86v-0.97h-3.02v0.97h-8.88v2.3h8.88v1.16h-9.79v2.3h4.94c-1.36,0.97-3.4,1.58-4.94,1.8v2.39
		c1.47-0.16,6.17-1.02,8.86-4.2h4.75v1.73c0,1.09,0.72,1.7,2.02,1.7h6.97v-2.24h-5.2c-0.66,0-0.66-0.44-0.66-0.68v-0.5h5.86v-2.3
		h-9.79V18.63z M48.06,32.65h22.6v-3.21h-22.6V32.65z M69.59,12.72H49.13v3.21h20.46V12.72z M139.31,11.94h-9.96v2.89h9.96V11.94z
		 M49.69,23.9h19.34v-3.21H49.69V23.9z M118.95,11.28h-3.12v4.1c-0.67,0.17-1.5,0.39-2.35,0.61v-2.71h-3.1v3.52
		c-0.66,0.17-1.1,0.28-1.13,0.29v3.33c0.04-0.01,0.46-0.12,1.13-0.29v10.4c0,1.53,0.89,3.32,3.39,3.32h10.61v-3.19h-9.46
		c-0.95,0-1.44-0.48-1.44-1.44v-9.9c0.76-0.2,1.56-0.41,2.35-0.61v8.69h3.12v-9.51c1.38-0.36,2.35-0.61,2.35-0.61v10.12h3.07V13.15
		c-0.14,0.04-3.35,0.87-5.42,1.41V11.28z M139.31,16.58h-9.7v7.32c0,1.31-0.09,5.86-1.29,9.95h3.35c0.52-1.4,0.94-4.74,1.11-7.46
		l0.01-0.18h6.51V16.58z M136.38,23.42h-3.51V19.5h3.51V23.42z M144.22,14.94h0.2c1.15,0,5.03-0.15,6.85-0.63
		c0-0.12,0.01-2.88,0.01-3.07c-4.33,0.7-5.62,0.7-9.83,0.7h-0.54v8.57c0,3.82-0.45,9.57-1.69,13.33h3.38
		c0.83-2.19,1.52-9.76,1.6-12.74h2.63v12.74h3.23V21.1h1.86v-3.06h-7.72V14.94z"/>
	<path class="st1" d="M158.38,33.84h-1.19V12.03h3.56v18.2c6.98-0.89,11.45-4.55,13.13-11.3h3.71
		C175.9,26.94,170.44,33.41,158.38,33.84"/>
	<path class="st1" d="M232.24,16.38v-3.53c3.38,0.25,7.41,0.76,10.97,1.47v3.66C239.61,17.19,235.67,16.6,232.24,16.38
		 M232.55,33.84v-3.45c9.17-0.74,15.36-3.5,16.58-13.97h3.73C251.7,28.69,244.38,33.39,232.55,33.84"/>
	<path class="st1" d="M268.68,25.77c-3.66,4.11-8.48,6.7-12.92,7.82v-3.45c5.99-1.75,12.32-7.28,14.42-14.89H257v-3.3h17.52
		c-0.46,3.96-1.73,7.81-3.5,10.65c1.55,3.63,4.29,5.97,6.78,7.49v3.76C273.76,32.22,270.63,29.22,268.68,25.77"/>
	<path class="st1" d="M181.23,23.03v-3.28c3.4,0.1,7.87,0.46,11.2,0.96v3.33C188.97,23.56,184.4,23.11,181.23,23.03 M181.48,15.62
		v-3.25c3.38,0.1,7.72,0.48,11.17,0.97v3.33C189.3,16.23,184.73,15.72,181.48,15.62 M181.87,33.85v-3.4
		c10.89-0.38,16.12-4.11,17.18-14.29h3.68C201.69,29,193.95,33.67,181.87,33.85 M199.03,15.11h-2.18v-3.83h2.18V15.11z
		 M202.27,15.11h-2.18v-3.83h2.18V15.11z"/>
	<path class="st1" d="M220.87,22.01c-0.94,7.29-5.99,10.97-12.47,11.83v-3.35c5.08-0.84,8.02-4.09,8.58-8.48h-10.97v-3.2h22.63v3.2
		H220.87z M227.09,13.91v1.37h-19.4v-3.25h15.79V10.1h2.16v1.93h1.09V10.1h2.18v3.81H227.09z"/>
</g>
</svg>
