<?xml version="1.0" encoding="utf-8"?>
<!-- Generator: Adobe Illustrator 24.0.0, SVG Export Plug-In . SVG Version: 6.00 Build 0)  -->
<svg version="1.1" id="Layer_1" xmlns="http://www.w3.org/2000/svg" xmlns:xlink="http://www.w3.org/1999/xlink" x="0px" y="0px"
	 viewBox="0 0 247.95 37.74" style="enable-background:new 0 0 247.95 37.74;" xml:space="preserve">
<style type="text/css">
	.st0{fill:#E60013;}
	.st1{clip-path:url(#SVGID_2_);}
</style>
<polygon class="st0" points="7.26,25.15 0,37.73 14.52,37.74 21.79,25.15 "/>
<polygon class="st0" points="21.79,25.15 29.05,37.74 43.58,37.74 36.33,25.15 "/>
<polygon class="st0" points="21.79,0 14.53,12.58 21.79,25.15 29.06,12.57 "/>
<g>
	<defs>
		<rect id="SVGID_1_" y="0" width="247.95" height="37.74"/>
	</defs>
	<clipPath id="SVGID_2_">
		<use xlink:href="#SVGID_1_"  style="overflow:visible;"/>
	</clipPath>
	<path class="st1" d="M107.28,29.55H94.61c1.08-0.77,2.08-1.67,2.88-2.75h-4.04c-3.81,2.92-7.6,3.56-9.75,4v2.7
		c0.51-0.05,2.43-0.32,4.76-1.03c0.78,0.65,1.66,1.25,2.64,1.79c-2.78,0.44-5.5,0.67-7.4,0.67v2.81c4.73,0,8.94-0.51,12.53-1.47
		c3.48,0.96,7.71,1.47,12.67,1.47v-2.81c-2.21,0-4.87-0.17-7.49-0.55C103.98,33.1,105.98,31.48,107.28,29.55 M96.07,33.22
		c-1.43-0.44-2.71-0.99-3.74-1.64h8.07C99.32,32.21,97.79,32.75,96.07,33.22 M97.98,20.78h9.88v-2.57h-9.88v-1.08h-3.37v1.08h-9.9
		v2.57h9.9v1.3H83.7v2.57h5.51c-1.51,1.08-3.8,1.77-5.51,2.01v2.67c1.64-0.18,6.88-1.14,9.87-4.68h5.3v1.93
		c0,1.22,0.8,1.89,2.26,1.89h7.77v-2.5h-5.8c-0.74,0-0.74-0.49-0.74-0.76v-0.56h6.54v-2.57H97.98V20.78z M105.2,12.57h-3.37v1.02
		H90.77v-1.02h-3.37v1.02H83.7v2.61h3.69v1.03h3.37v-1.03h11.06v1.03h3.37v-1.03h3.69v-2.61h-3.69V12.57z M53.59,36.4h25.19v-3.58
		H53.59V36.4z M155.32,13.32h-11.11v3.22h11.11V13.32z M77.59,14.18H54.78v3.58h22.81V14.18z M76.96,23.07H55.4v3.58h21.56V23.07z
		 M118.95,20.83h1.66v-3.44h-1.66v-4.82h-3.48v4.82h-1.99v3.44h1.99v10.41c-0.76,0.19-1.45,0.34-1.99,0.44v3.81
		c1.7-0.32,6.59-1.9,8.31-2.76v-3.41c-0.69,0.29-1.72,0.63-2.84,0.97V20.83z M132.62,12.57h-3.48v4.57
		c-0.74,0.19-1.67,0.43-2.62,0.68V14.8h-3.46v3.92c-0.73,0.19-1.23,0.32-1.26,0.33v3.71c0.04-0.01,0.52-0.13,1.26-0.33v11.6
		c0,1.71,0.99,3.7,3.78,3.7h11.83v-3.56h-10.55c-1.06,0-1.6-0.54-1.6-1.6V21.53c0.85-0.22,1.74-0.45,2.62-0.68v9.69h3.48v-10.6
		c1.55-0.4,2.62-0.68,2.62-0.68v11.28h3.42V14.67c-0.16,0.04-3.74,0.97-6.05,1.57V12.57z M160.81,16.65h0.22
		c1.28,0,5.61-0.17,7.64-0.7c0-0.13,0.01-3.21,0.01-3.42c-4.83,0.79-6.27,0.79-10.96,0.78h-0.6v9.55c0,4.26-0.5,10.67-1.88,14.87
		h3.77c0.92-2.44,1.7-10.88,1.79-14.21h2.93v14.21h3.6V23.53h2.08v-3.41h-8.6V16.65z M155.32,18.49h-10.81v8.16
		c0,1.46-0.1,6.54-1.44,11.09h3.73c0.59-1.57,1.05-5.29,1.24-8.31l0.02-0.21h7.26V18.49z M152.06,26.11h-3.91v-4.36h3.91V26.11z"/>
	<path class="st1" d="M173.24,36.49v-4.16c2.25-2.03,3.52-5.85,3.77-10.38h3.61C180.2,28.47,178.31,33.88,173.24,36.49
		 M187.38,19.81v17.92h-3.77V19.81h-9.93v-3.47h9.93v-3.77h3.77v3.77h10.01v3.47H187.38z M190.38,21.95h3.69
		c0.25,4.52,1.58,8.35,3.86,10.38v4.16C192.71,33.88,190.77,28.47,190.38,21.95"/>
	<rect x="200.87" y="22.03" class="st1" width="20.53" height="3.66"/>
	<path class="st1" d="M222.81,36.82v-3.36c2.41-4.66,5.77-13.79,7.38-19.97h4.13c-2.14,7.74-4.66,13.95-7.3,19.78h15.51
		c-1.22-3.75-3.58-8.32-5.52-11.99h4.22c2.39,4.3,4.91,9.71,6.71,15.54H222.81z"/>
</g>
</svg>
