<?xml version="1.0" encoding="utf-8"?>
<!-- Generator: Adobe Illustrator 24.0.0, SVG Export Plug-In . SVG Version: 6.00 Build 0)  -->
<svg version="1.1" id="Layer_1" xmlns="http://www.w3.org/2000/svg" xmlns:xlink="http://www.w3.org/1999/xlink" x="0px" y="0px"
	 viewBox="0 0 332.25 37.74" style="enable-background:new 0 0 332.25 37.74;" xml:space="preserve">
<style type="text/css">
	.st0{fill:#E60013;}
	.st1{clip-path:url(#SVGID_2_);}
</style>
<polygon class="st0" points="7.26,25.15 0,37.73 14.52,37.74 21.79,25.15 "/>
<polygon class="st0" points="21.79,25.15 29.05,37.74 43.58,37.74 36.33,25.15 "/>
<polygon class="st0" points="21.79,0 14.53,12.58 21.79,25.15 29.06,12.57 "/>
<g>
	<defs>
		<rect id="SVGID_1_" y="0" width="332.25" height="37.74"/>
	</defs>
	<clipPath id="SVGID_2_">
		<use xlink:href="#SVGID_1_"  style="overflow:visible;"/>
	</clipPath>
	<path class="st1" d="M107.28,29.55H94.61c1.08-0.77,2.08-1.67,2.88-2.75h-4.04c-3.81,2.92-7.6,3.56-9.75,4v2.7
		c0.51-0.05,2.43-0.32,4.76-1.03c0.78,0.65,1.66,1.25,2.64,1.79c-2.78,0.44-5.5,0.67-7.4,0.67v2.81c4.73,0,8.94-0.51,12.53-1.47
		c3.48,0.96,7.71,1.47,12.67,1.47v-2.81c-2.21,0-4.87-0.17-7.49-0.55C103.98,33.1,105.98,31.48,107.28,29.55 M96.07,33.21
		c-1.43-0.44-2.71-0.99-3.74-1.64h8.07C99.32,32.21,97.79,32.75,96.07,33.21 M97.98,20.77h9.88v-2.57h-9.88v-1.08h-3.37v1.08h-9.9
		v2.57h9.9v1.3H83.7v2.57h5.51c-1.51,1.08-3.8,1.76-5.51,2.01v2.67c1.64-0.18,6.88-1.14,9.87-4.68h5.3v1.93
		c0,1.22,0.8,1.89,2.26,1.89h7.77v-2.5h-5.8c-0.74,0-0.74-0.49-0.74-0.76v-0.56h6.54v-2.57H97.98V20.77z M105.2,12.57h-3.37v1.02
		H90.77v-1.02h-3.37v1.02H83.7v2.61h3.69v1.03h3.37v-1.03h11.06v1.03h3.37v-1.03h3.69v-2.61h-3.69V12.57z M53.59,36.4h25.19v-3.58
		H53.59V36.4z M155.32,13.32h-11.11v3.22h11.11V13.32z M77.59,14.18H54.78v3.58h22.81V14.18z M76.96,23.07H55.4v3.58h21.56V23.07z
		 M118.95,20.83h1.66v-3.44h-1.66v-4.82h-3.48v4.82h-1.99v3.44h1.99v10.41c-0.76,0.19-1.45,0.35-1.99,0.44v3.81
		c1.7-0.32,6.59-1.9,8.31-2.76v-3.41c-0.69,0.29-1.72,0.63-2.84,0.97V20.83z M132.62,12.57h-3.48v4.57
		c-0.74,0.19-1.67,0.43-2.62,0.68V14.8h-3.46v3.92c-0.73,0.19-1.23,0.32-1.26,0.33v3.71c0.04-0.01,0.52-0.13,1.26-0.33v11.6
		c0,1.71,0.99,3.7,3.78,3.7h11.83v-3.56h-10.55c-1.06,0-1.6-0.54-1.6-1.6V21.53c0.85-0.22,1.74-0.45,2.62-0.68v9.69h3.48v-10.6
		c1.55-0.4,2.62-0.68,2.62-0.68v11.28h3.42V14.67c-0.16,0.04-3.74,0.97-6.05,1.57V12.57z M160.81,16.65h0.22
		c1.28,0,5.61-0.17,7.64-0.7c0-0.13,0.01-3.21,0.01-3.42c-4.83,0.78-6.27,0.79-10.96,0.78h-0.6v9.55c0,4.26-0.5,10.67-1.88,14.87
		h3.77c0.92-2.44,1.7-10.88,1.79-14.21h2.93v14.21h3.6V23.53h2.08v-3.41h-8.6V16.65z M155.32,18.49h-10.81v8.16
		c0,1.46-0.1,6.54-1.44,11.09h3.73c0.59-1.57,1.05-5.29,1.24-8.31l0.02-0.21h7.26V18.49z M152.06,26.11h-3.91v-4.36h3.91V26.11z"/>
	<polygon class="st1" points="174.28,36.02 174.28,32.38 191.75,32.38 191.75,17.99 174.33,17.99 174.33,14.41 195.83,14.41 
		195.83,36.02 	"/>
	<path class="st1" d="M200.75,35.05v-3.83c7.52,0.08,15.26,0.61,22.69,1.75v3.91C216.09,35.71,208.05,35.1,200.75,35.05
		 M201.92,17.32v-3.8c6.57,0.03,14.12,0.22,20.36,0.86v3.86C215.07,17.54,208.85,17.26,201.92,17.32 M202.64,25.75v-3.63
		c5.55,0.03,12.09,0.22,18.45,1.03v3.77C214.82,26.2,208.71,25.78,202.64,25.75"/>
	<polygon class="st1" points="228.28,36.3 228.28,32.94 240.99,32.94 242.26,20.68 230.75,20.68 230.75,17.29 246.34,17.29 
		244.76,32.94 250.17,32.94 250.17,36.3 	"/>
	<path class="st1" d="M254.95,32.08h24.69v3.74h-24.69V32.08z M257.28,14.82h19.84v3.66h-19.84V14.82z"/>
	<path class="st1" d="M300.26,24.48c-1.03,7.96-6.55,11.71-13.62,12.65v-3.66c5.55-0.92,8.77-4.19,9.38-8.99h-11.98v-3.5h24.72v3.5
		H300.26z M285.87,13.57h21.2v3.55h-21.2V13.57z"/>
	<path class="st1" d="M325.65,24.23v13.51h-3.77V26.39c-3.08,1.41-6.58,2.41-10.29,3.02v-3.44c9.65-1.97,14.43-5.74,16.51-10.02
		h4.16C330.95,19.43,328.64,22.15,325.65,24.23"/>
</g>
</svg>
