<?xml version="1.0" encoding="utf-8"?>
<!-- Generator: Adobe Illustrator 24.0.0, SVG Export Plug-In . SVG Version: 6.00 Build 0)  -->
<svg version="1.1" id="Layer_1" xmlns="http://www.w3.org/2000/svg" xmlns:xlink="http://www.w3.org/1999/xlink" x="0px" y="0px"
	 viewBox="0 0 1965.48 1116.62" style="enable-background:new 0 0 1965.48 1116.62;" xml:space="preserve">
<style type="text/css">
	.st0{fill:#ff1100;}
	.st1{clip-path:url(#SVGID_2_);fill:#ff1100;}
</style>
<rect x="0" y="0" class="st0" width="1965.47" height="10.7"/>
<rect y="1105.92" class="st0" width="1965.47" height="10.7"/>
<rect x="76.02" y="286.98" class="st0" width="257.99" height="11.51"/>
<rect x="22.07" y="485.33" class="st0" width="366.42" height="11.51"/>
<rect x="47.98" y="114.02" class="st0" width="315.64" height="11.51"/>
<g>
	<defs>
		<rect id="SVGID_1_" width="1965.48" height="1116.62"/>
	</defs>
	<clipPath id="SVGID_2_">
		<use xlink:href="#SVGID_1_"  style="overflow:visible;"/>
	</clipPath>
	<path class="st1" d="M614.13,256.3H437.8v11.51h135.12c-15.98,47.37-55.55,78.83-120.95,96.15l-4.09,1.09l7.29,9.72l1.89-0.54
		c69.61-19.78,110.01-53.3,127.15-105.49c0.18-0.55,0.71-0.93,1.32-0.93h60.33c0.77,0,1.4,0.63,1.4,1.4v48.65
		c0,21.33,7.43,27.17,34.58,27.17h78.28c12.83,0,21.64-0.47,26.95-6.71c5.13-6.03,6.73-16.92,8.05-36.2l0.15-2.24l-11.51-3.64
		l-0.13,3.76c-0.53,16.07-1.3,23.98-4.41,28.41c-3.35,4.77-10.05,5.11-20.69,5.11H682.9c-18.11,0-24.13-2.26-24.13-15.67v-48.65
		c0-0.77,0.63-1.4,1.4-1.4h148.29V256.3h-179.5c-0.77,0-1.4-0.63-1.4-1.4v-56.58c0-0.77,0.63-1.4,1.4-1.4h120.79v-11.51H628.96
		c-0.77,0-1.4-0.63-1.4-1.4V144.7h-12.04v39.33c0,0.77-0.63,1.4-1.4,1.4h-115.5v11.51h115.5c0.77,0,1.4,0.63,1.4,1.4v56.58
		C615.52,255.68,614.9,256.3,614.13,256.3"/>
	<path class="st1" d="M435.04,530.56l9.04,10.25l1.63-0.34c67.97-14.24,128.94-35.32,176.35-60.98
		c49.16,27.68,110.1,48.21,181.14,61.02l1.64,0.29l9.02-10.82l-4.94-0.8c-66.71-10.83-127.13-30.32-174.8-56.37
		c41.21-24.59,70.32-52.66,86.54-83.44l1.32-2.51l-8.75-4.67H559.08c11.87-14.56,21.29-28.03,28.78-41.15l2.08-3.65l-12.69-1.81
		l-0.95,1.75c-24.8,45.9-72.4,93.22-134.02,133.24l-3.43,2.23l9.7,7.28l1.68-1.11c32.81-21.64,61.95-45.56,86.61-71.13
		c18.41,24.18,42.69,45.43,74.23,64.95c-45.23,23.64-102.82,42.75-171.21,56.79L435.04,530.56z M544.73,398.83l5.19-5.67h153.93
		c-15.59,27.04-42.92,51.6-81.25,73.01C590.24,447.24,564.04,424.59,544.73,398.83"/>
	<path class="st1" d="M554.17,64.3v42.5c0,0.77-0.63,1.4-1.4,1.4H437.8v10.98h114.97c0.77,0,1.4,0.63,1.4,1.4v43.56h11.51v-43.56
		c0-0.77,0.63-1.4,1.4-1.4H677.6c0.77,0,1.4,0.63,1.4,1.4v43.56h11.51v-43.56c0-0.77,0.63-1.4,1.4-1.4h116.55V108.2H691.9
		c-0.77,0-1.4-0.63-1.4-1.4V64.3h-11.51v42.5c0,0.77-0.63,1.4-1.4,1.4H567.07c-0.77,0-1.4-0.63-1.4-1.4V64.3H554.17z"/>
	<path class="st1" d="M1011.69,118.78v135.34c0,1.52-0.84,2.89-2.2,3.58l-53.04,27.03l4.32,9.25l48.89-24.7
		c0.61-0.31,1.5-0.2,2.01,0.77c0,0,0.02,0.06,0.02,0.19v206.28c0,21.18,3.85,34.96,12.11,43.35c7.71,7.83,19.37,11.33,37.81,11.33
		h112.13c21.6,0,32.36-1.73,38.96-11.97c6.33-9.82,8.21-27.51,9.82-61.05l0.11-2.31l-11.51-3.03l-0.06,2.08l-0.04,1.52
		c-0.82,30.56-2.04,45.55-7.14,53.65c-4.89,7.76-13.74,9.07-31.73,9.07h-109.49c-30.25,0-39.47-10.09-39.47-43.17V263.1
		c0-0.53,0.29-1.01,0.77-1.25l77.64-39.08v203.18h11.51V218.14c0-0.53,0.29-1.01,0.77-1.25l78.69-39.6
		c-0.56,112.24-1.56,161.29-3.83,187.25c-2.37,27.17-6.34,27.17-11.84,27.17c-7.57,0-20.23,0-30.43-0.85l-3.09-0.26v11.53l2.74,0.11
		c10.5,0.44,25.07,0.44,32.9,0.44c12.34,0,17.3-2.65,20.43-30.73c3.29-29.59,4.09-86.87,4.62-204.07l0.01-2.45l-10.9-1.72
		l-79.08,40.31c-0.25,0.13-0.54,0.09-0.76-0.09c-0.14-0.12-0.24-0.37-0.24-0.64v-139h-11.51v145.41c0,0.53-0.29,1.01-0.76,1.24
		l-76.65,39.08c-0.26,0.13-0.53,0.1-0.76-0.09c-0.15-0.12-0.24-0.37-0.24-0.65V118.78H1011.69z"/>
	<path class="st1" d="M909.15,411.18c-3.48,1.57-45.7,20.01-59.99,25.78l-2.74,1.11l4.83,10.86l2.57-1.07
		c32.86-13.63,88.32-38.31,126.26-56.19l1.94-0.91l-1.82-11.54l-3.44,1.61c-13.64,6.38-34.1,15.85-55.11,24.8V207.85
		c0-0.77,0.63-1.4,1.4-1.4h51.5v-11.51h-51.5c-0.77,0-1.4-0.63-1.4-1.4V64.3h-12.04v129.25c0,0.77-0.63,1.4-1.4,1.4h-54.14v11.51
		h54.14c0.77,0,1.4,0.63,1.4,1.4c0,0,0.03,198.27,0.03,201.49C909.64,410.96,909.41,411.06,909.15,411.18"/>
	<path class="st1" d="M1631.61,75.33l2.86-1.59l-7.24-9.65l-2.2,1.28c-31.44,18.39-95.03,42.32-141.85,53.39l-10.27,0.03v196.43
		c0,45-5.31,83.62-16.23,118.06c-12.06,38.01-30.56,69.97-56.58,97.7l-2.1,2.24l9.6,7.8l1.82-1.97c50.47-54.59,75-127.64,75-223.3
		v-68.75c0-0.77,0.63-1.4,1.4-1.4h86.19c0.77,0,1.4,0.63,1.4,1.4v294.27h11.51V246.99c0-0.77,0.63-1.4,1.4-1.4h61.02v-10.98h-161.51
		c-0.77,0-1.4-0.63-1.4-1.4V130.14C1531.19,119.27,1595.72,95.25,1631.61,75.33"/>
	<rect x="1276.16" y="90.22" class="st1" width="183.94" height="10.98"/>
	<path class="st1" d="M1265.93,533.37l9.67,7.25l1.47-3.25c23.15-51.26,34.4-116.66,34.4-199.94v-6.87c0-0.77,0.63-1.4,1.4-1.4
		h121.31V181.73h-134.22V336.9c0,83.46-10.51,145.22-33.06,194.37L1265.93,533.37z M1422.14,194.1v122.69c0,0.77-0.63,1.4-1.4,1.4
		h-107.88c-0.77,0-1.4-0.63-1.4-1.4V194.1c0-0.77,0.63-1.4,1.4-1.4h107.88C1421.51,192.7,1422.14,193.33,1422.14,194.1"/>
	<path class="st1" d="M1762.93,293.39c-25.71,18.14-46.57,37.34-62.02,57.08c-19.59,25.02-29.11,49.83-29.11,75.82
		c0,31.33,12.84,55.45,38.15,71.69c25.63,16.44,64.12,24.78,114.38,24.78c39.24,0,78.47-2.82,113.42-8.16l2.68-0.41l-1.2-12.04
		l-3,0.49c-32.86,5.39-74.88,8.61-112.43,8.61c-63.85,0-139.97-14.65-139.97-84.43c0-38.75,24.13-76.45,73.77-115.26
		c45.83-35.83,104.89-65.75,151.21-87.8l2.74-1.31l-6.01-10.81l-2.45,1.24c-39.96,20.26-82.13,42.4-119.81,66.94
		c-0.11-0.16-0.22-0.37-0.3-0.51c-0.07-0.13-0.13-0.25-0.2-0.35c-19.35-32.72-28-68.7-28.09-195.41l0-2.85h-12.04l0,2.86
		c0.05,106.25,4.22,157.79,29.84,201.87c0.32,0.58,0.43,0.87,0.47,1.01c-0.09,0.09-0.28,0.26-0.7,0.55
		C1769.12,289.09,1765.97,291.25,1762.93,293.39"/>
	<path class="st1" d="M130.82,693.25l2,2.4l7.91-7.91l-1.67-2c-20.75-24.94-50.98-52.37-89.84-81.52l-2.15-1.62l-6.76,7.99l2.4,1.82
		C80.06,640.7,109.7,667.9,130.82,693.25"/>
	<path class="st1" d="M359.37,813.07l10.94,2.43l0.84-2.4c13.08-37.61,26.59-88.36,34.4-129.3l0.59-3.09l-6.6-0.6l-195.37,0
		c8.91-32.67,15.51-66.19,19.61-99.65l0.35-2.88l-11.51-1.21l-0.31,2.83c-8.85,82.45-35.35,163.53-74.61,228.31l-1.64,2.71
		l11.38,5.39l1.33-2.23c20.91-35.04,38.51-76.16,52.34-122.29h65.88c-2.6,82.82-8.44,149.79-28.37,207.3
		c-11.12,32.1-25.86,59.03-45.08,82.34c-20.49,24.85-45.47,44.95-76.38,61.46l-3.51,1.88l9.58,8.98l1.81-0.97
		c47-25.28,81.47-59.4,105.4-104.31c20.04-37.61,32.79-82.52,40.06-141.15c21.96,131.96,63.54,207.88,134.61,245.96l1.87,1
		l9.53-9.53l-3.43-1.8c-37.74-19.83-66.81-50.87-88.89-94.89c-20.12-40.12-34.83-91.68-44.98-157.57c-0.21-1.6-2.1-16.01-2.45-27.55
		c-0.38-12.17,0.38-30.26,0.39-30.44l0.01-0.36c0.69-13.38,1.3-27.27,1.85-40.35H391.7c-6.35,33.88-18.62,80.47-31.34,118.99
		L359.37,813.07z"/>
	<path class="st1" d="M33.44,984.39l8.95,9.54l2.08-1.93c28.85-26.69,77.29-78.24,110.25-121.2l1.26-1.65l-6.68-9.72l-2.39,3.12
		c-30.13,39.36-78.98,92.02-111.22,119.88L33.44,984.39z"/>
	<path class="st1" d="M513.3,599.78l-12.57-1.2l-0.41,2.66c-11.91,77.34-18.74,166.88-18.74,245.67c0,81.19,6.2,140.57,19.5,186.87
		l0.83,2.9l11.97-4.19l-0.83-2.64c-13.44-42.82-19.44-99.57-19.44-184c0-82.25,7.17-173.11,19.17-243.04L513.3,599.78z"/>
	<path class="st1" d="M604.73,993.18c19,7.89,46.31,11.56,85.97,11.56c22.2,0,46.19-1.65,73.34-5.06l2.5-0.31V987.3l-3.28,0.49
		c-23.99,3.61-48.41,5.44-72.56,5.44c-37.17,0-62.52-3.16-79.8-9.93c-19.13-7.5-28.43-19.76-28.43-37.47
		c0-18.67,5.76-40.8,18.67-71.76l1.13-2.7l-10.89-4.23l-1.06,2.6c-12.85,31.5-19.36,56.93-19.36,75.56
		C570.96,968.08,582.01,983.74,604.73,993.18"/>
	<path class="st1" d="M688.05,682.09c21.67,0,46.75,0.94,65.46,2.46l2.93,0.24l0.6-12.05l-2.83-0.16
		c-12.87-0.73-28.76-1.14-43.59-1.14c-6.18,0-12.19,0.07-17.82,0.21c-45.33,0-87.56,3.9-115.01,7.17l-2.65,0.32l0.6,12.06l3.14-0.49
		C614.16,685.15,652.93,682.09,688.05,682.09"/>
	<path class="st1" d="M873.01,950.19c16.44,41.77,38.6,66.71,59.26,66.71c25.4,0,44.67-35.41,60.64-111.44l0.51-2.41l-11.45-4.22
		l-0.6,3.36v0c-11.45,64.3-30,102.68-49.62,102.68c-16.33,0-34.73-22.86-49.24-61.15c-16.55-43.71-25.67-101.57-25.67-162.92
		c0-37.84,1.3-80.03,3.56-115.75l0.18-2.89l-12.04-0.6l-0.15,2.85c-1.92,37.26-3.06,80.97-3.06,116.93
		C845.33,844.87,855.16,904.84,873.01,950.19"/>
	<path class="st1" d="M1075.94,654.55l-1.8-2.25l-9.6,7.8l1.79,2.21c26.69,33.13,45.46,71.73,57.37,118.02
		c10.74,41.73,16.06,89.39,16.75,149.98l0.04,3.1l12.56-1.2l-0.04-2.64c-0.95-62.76-6.46-111.43-17.32-153.19
		C1123.53,729.63,1103.98,689.78,1075.94,654.55"/>
	<path class="st1" d="M1257.37,647.74l-2.41,12.03l3.04,0.39c38.36,4.92,71.46,7.12,107.32,7.12c30.64,0,63.7-1.23,95.75-3.55
		c-19,16.82-57.26,51.69-80.36,73.25l-2.16,2.02l8.45,8.45l2.02-2.01c26.22-26.05,70.4-65.8,90.9-81.78l2.25-1.75l-8.09-10.39
		l-1.53,0.12c-32.07,2.43-67.5,3.61-108.3,3.61c-42.68,0-72.87-2.05-104.18-7.07L1257.37,647.74z"/>
	<path class="st1" d="M1274.51,1010.82c25.07,11,62.33,16.13,117.25,16.13c27.74,0,73.88-3.5,109.64-11.19l2.85-0.61l-2.99-12.55
		l-2.83,0.75c-38.53,10.24-90.98,11.04-106.14,11.04c-89.41,0-148.96-11.84-148.96-69.62c0-22.44,10.8-52.78,30.42-85.42l1.62-2.7
		l-11.38-5.39l-1.32,2.26c-20.53,35.19-31.38,66.92-31.38,91.77C1231.3,977.06,1245.03,997.89,1274.51,1010.82"/>
	<path class="st1" d="M1754.65,958.02c-30.92,28.55-78.37,47.81-145.07,58.89l-3.57,0.59l4.81,11.43l2.23-0.38
		c69.02-11.61,118.55-32.37,151.45-63.45c31.92-30.16,47.44-69.41,47.44-120c0-39.57-9.25-70.47-27.48-91.85
		c-17.04-19.98-41.63-30.54-71.1-30.54c-39.07,0-99.81,10.73-158.52,28.01l-2.63,0.77l3,12l2.88-0.89
		c53.1-16.41,116.73-27.86,154.73-27.86c26.11,0,47.86,9.85,62.9,28.49c15.47,19.16,23.64,47.47,23.64,81.86
		C1799.37,893.29,1784.74,930.23,1754.65,958.02"/>
	<path class="st1" d="M1623.2,591l-6.62,10.23l2.64,1.49c11.8,6.65,57.67,30.66,152.72,60.2l2.71,0.84l3.62-11.45l-2.81-0.81
		c-65.8-18.92-123.84-43.91-149.91-59.12L1623.2,591z"/>
	<path class="st1" d="M1846.98,976.35c0,29.57,24.29,53.62,54.15,53.62c14.46,0,27.98-5.59,38.07-15.75
		c10.03-10.1,15.55-23.55,15.55-37.87c0-30.36-23.55-54.15-53.62-54.15C1871.27,922.2,1846.98,946.49,1846.98,976.35
		 M1930.49,946.72c7.88,8.02,12.22,18.54,12.22,29.64c0,11.1-4.34,21.62-12.22,29.64c-7.91,8.05-18.34,12.48-29.37,12.48
		c-22.83,0-42.11-19.29-42.11-42.11c0-22.83,19.29-42.11,42.11-42.11C1912.15,934.24,1922.58,938.67,1930.49,946.72"/>
</g>
</svg>
