<?xml version="1.0" encoding="utf-8"?>
<!-- Generator: Adobe Illustrator 24.0.0, SVG Export Plug-In . SVG Version: 6.00 Build 0)  -->
<svg version="1.1" id="Layer_1" xmlns="http://www.w3.org/2000/svg" xmlns:xlink="http://www.w3.org/1999/xlink" x="0px" y="0px"
	 viewBox="0 0 47.99 35.12" style="enable-background:new 0 0 47.99 35.12;" xml:space="preserve">
<style type="text/css">
	.st0{clip-path:url(#SVGID_2_);fill:none;stroke:#C1C1C1;stroke-width:1.8;stroke-linecap:round;stroke-linejoin:round;}
	.st1{clip-path:url(#SVGID_2_);fill:none;stroke:#CD0010;stroke-width:1.8;stroke-linecap:round;stroke-linejoin:round;}
</style>
<g>
	<defs>
		<rect id="SVGID_1_" y="0" width="47.99" height="35.12"/>
	</defs>
	<clipPath id="SVGID_2_">
		<use xlink:href="#SVGID_1_"  style="overflow:visible;"/>
	</clipPath>
	<polygon class="st0" points="9.32,34.22 9.32,24.48 14.29,24.48 14.29,34.22 22.71,34.22 22.71,21.14 11.8,12.42 0.9,21.14 
		0.9,34.22 1.05,34.22 	"/>
	<path class="st1" d="M30.98,4.93c0-2.22,3.61-4.03,8.05-4.03c4.45,0,8.06,1.8,8.06,4.03s-3.61,4.03-8.06,4.03
		C34.58,8.95,30.98,7.15,30.98,4.93"/>
	<path class="st1" d="M30.98,9.96V15c0,2.22,3.61,4.03,8.05,4.03c4.45,0,8.06-1.8,8.06-4.03V9.96"/>
	<path class="st1" d="M30.98,4.93v5.03c0,2.22,3.61,4.03,8.05,4.03c4.45,0,8.06-1.8,8.06-4.03V4.93"/>
	<polyline class="st0" points="20.71,11.32 25.55,11.32 25.55,16.04 	"/>
	<line class="st0" x1="21.46" y1="15.35" x2="25.52" y2="11.29"/>
</g>
</svg>
