<?xml version="1.0" encoding="utf-8"?>
<!-- Generator: Adobe Illustrator 24.0.0, SVG Export Plug-In . SVG Version: 6.00 Build 0)  -->
<svg version="1.1" id="Layer_1" xmlns="http://www.w3.org/2000/svg" xmlns:xlink="http://www.w3.org/1999/xlink" x="0px" y="0px"
	 viewBox="0 0 31.5 30.94" style="enable-background:new 0 0 31.5 30.94;" xml:space="preserve">
<style type="text/css">
	.st0{clip-path:url(#SVGID_2_);fill:#C1C1C1;}
	.st1{clip-path:url(#SVGID_2_);fill:#CD0010;}
</style>
<g>
	<defs>
		<rect id="SVGID_1_" y="0" width="31.5" height="30.94"/>
	</defs>
	<clipPath id="SVGID_2_">
		<use xlink:href="#SVGID_1_"  style="overflow:visible;"/>
	</clipPath>
	<path class="st0" d="M15.35,30.13c-0.01,0-0.02,0-0.03,0l-8.88-0.3c-0.45-0.01-0.8-0.39-0.78-0.83c0.01-0.45,0.38-0.8,0.83-0.78
		l8.8,0.3l8.61-1.57c0.72-0.55,3.64-2.78,5.43-4.07c-0.65-0.3-1.52-0.47-1.97-0.25c-1.04,0.49-3.53,1.76-3.56,1.77
		c-0.11,0.06-0.24,0.09-0.37,0.09h-8.08c-0.38,0-0.71-0.27-0.79-0.64l-0.4-1.97c-0.07-0.35,0.09-0.7,0.4-0.87
		c0,0,2.4-1.31,3.21-1.76c0.03-0.09,0.04-0.65-0.19-0.96c-0.09-0.13-0.17-0.15-0.33-0.11c-1.38,0.39-6.12,1.86-7.13,2.18l-1.29,1.29
		c-0.31,0.32-0.83,0.32-1.14,0c-0.32-0.31-0.32-0.83,0-1.14l1.43-1.44c0.09-0.09,0.21-0.16,0.33-0.2c0.24-0.07,5.81-1.81,7.36-2.25
		c1.01-0.28,1.93,0.2,2.35,1.23c0.4,0.97,0.27,2.32-0.62,2.82c-0.57,0.32-1.94,1.06-2.7,1.47l0.15,0.73h7.23
		c0.59-0.3,2.52-1.27,3.43-1.7c1.4-0.66,3.82,0.14,4.67,1.24c0.14,0.18,0.19,0.4,0.16,0.62c-0.03,0.22-0.16,0.42-0.34,0.54
		c-1.52,1.04-6.38,4.75-6.43,4.79c-0.1,0.08-0.22,0.13-0.35,0.15l-8.89,1.62C15.44,30.13,15.4,30.13,15.35,30.13"/>
	<path class="st1" d="M5.65,30.94H0.81C0.36,30.94,0,30.58,0,30.13v-7.72c0-0.45,0.36-0.81,0.81-0.81c0.45,0,0.81,0.36,0.81,0.81
		v6.91h3.23v-8.89H0.81C0.36,20.44,0,20.08,0,19.63c0-0.45,0.36-0.81,0.81-0.81h4.85c0.45,0,0.81,0.36,0.81,0.81v10.5
		C6.46,30.58,6.1,30.94,5.65,30.94"/>
	<path class="st0" d="M10.75,16.06V1.89h17.07v16.74c0.02,0,0.03,0,0.05,0c0.61,0,1.24,0.1,1.85,0.26V0.95
		C29.72,0.42,29.3,0,28.77,0H9.81C9.28,0,8.86,0.42,8.86,0.95v15.7l0.01,0C9.35,16.49,10.01,16.29,10.75,16.06"/>
	<path class="st0" d="M15.58,8.24h-1.74c-0.52,0-0.95,0.42-0.95,0.95c0,0.52,0.42,0.95,0.95,0.95h1.74c0.52,0,0.95-0.42,0.95-0.95
		C16.53,8.66,16.11,8.24,15.58,8.24"/>
	<path class="st0" d="M15.58,12.27h-1.74c-0.52,0-0.95,0.42-0.95,0.95c0,0.52,0.42,0.95,0.95,0.95h1.74c0.52,0,0.95-0.42,0.95-0.95
		C16.53,12.7,16.11,12.27,15.58,12.27"/>
	<path class="st0" d="M20.37,8.24h-1.74c-0.52,0-0.95,0.42-0.95,0.95c0,0.52,0.42,0.95,0.95,0.95h1.74c0.52,0,0.95-0.42,0.95-0.95
		C21.31,8.66,20.89,8.24,20.37,8.24"/>
	<path class="st0" d="M20.37,12.27h-1.74c-0.52,0-0.95,0.42-0.95,0.95c0,0.52,0.42,0.95,0.95,0.95h1.74c0.52,0,0.95-0.42,0.95-0.95
		C21.31,12.7,20.89,12.27,20.37,12.27"/>
	<path class="st0" d="M25.38,8.24h-1.74c-0.52,0-0.95,0.42-0.95,0.95c0,0.52,0.42,0.95,0.95,0.95h1.74c0.52,0,0.95-0.42,0.95-0.95
		C26.32,8.66,25.9,8.24,25.38,8.24"/>
	<path class="st0" d="M25.38,12.27h-1.74c-0.52,0-0.95,0.42-0.95,0.95c0,0.52,0.42,0.95,0.95,0.95h1.74c0.52,0,0.95-0.42,0.95-0.95
		C26.32,12.7,25.9,12.27,25.38,12.27"/>
	<path class="st0" d="M15.58,4.05h-1.74c-0.52,0-0.95,0.42-0.95,0.95c0,0.52,0.42,0.95,0.95,0.95h1.74c0.52,0,0.95-0.42,0.95-0.95
		C16.53,4.48,16.11,4.05,15.58,4.05"/>
	<path class="st0" d="M20.37,4.05h-1.74c-0.52,0-0.95,0.42-0.95,0.95c0,0.52,0.42,0.95,0.95,0.95h1.74c0.52,0,0.95-0.42,0.95-0.95
		C21.31,4.48,20.89,4.05,20.37,4.05"/>
	<path class="st0" d="M25.38,4.05h-1.74c-0.52,0-0.95,0.42-0.95,0.95c0,0.52,0.42,0.95,0.95,0.95h1.74c0.52,0,0.95-0.42,0.95-0.95
		C26.32,4.48,25.9,4.05,25.38,4.05"/>
	<path class="st0" d="M25.38,16.3h-1.74c-0.52,0-0.95,0.42-0.95,0.95c0,0.52,0.42,0.95,0.95,0.95h1.74c0.52,0,0.95-0.42,0.95-0.95
		C26.32,16.73,25.9,16.3,25.38,16.3"/>
</g>
</svg>
