<?xml version="1.0" encoding="utf-8"?>
<!-- Generator: Adobe Illustrator 24.0.0, SVG Export Plug-In . SVG Version: 6.00 Build 0)  -->
<svg version="1.1" id="Layer_1" xmlns="http://www.w3.org/2000/svg" xmlns:xlink="http://www.w3.org/1999/xlink" x="0px" y="0px"
	 viewBox="0 0 33.88 30.97" style="enable-background:new 0 0 33.88 30.97;" xml:space="preserve">
<style type="text/css">
	.st0{clip-path:url(#SVGID_2_);fill:none;stroke:#C1C1C1;stroke-width:1.7;stroke-linecap:round;stroke-linejoin:round;}
	.st1{clip-path:url(#SVGID_2_);fill:none;stroke:#BF000F;stroke-width:1.7;stroke-linecap:round;stroke-linejoin:round;}
</style>
<g>
	<defs>
		<rect id="SVGID_1_" y="0" width="33.88" height="30.97"/>
	</defs>
	<clipPath id="SVGID_2_">
		<use xlink:href="#SVGID_1_"  style="overflow:visible;"/>
	</clipPath>
	<polyline class="st0" points="0.85,18.82 6.07,18.82 6.07,30.12 0.85,30.12 0.85,21.81 	"/>
	<path class="st0" d="M8.87,20.36l1.54-1.55c0,0,6.22-1.94,7.9-2.41c1.69-0.47,2.09,2.27,1.21,2.75c-0.88,0.48-3.47,1.89-3.47,1.89
		l0.43,2.11h8.7c0,0,2.71-1.38,3.86-1.92c1.15-0.54,3.29,0.2,3.97,1.08c-1.68,1.15-6.96,5.19-6.96,5.19l-9.57,1.74l-9.57-0.32"/>
	
		<ellipse transform="matrix(0.3065 -0.9519 0.9519 0.3065 11.4091 24.9803)" class="st1" cx="22.85" cy="4.66" rx="3.81" ry="3.81"/>
	<line class="st1" x1="8.37" y1="10.94" x2="19.35" y2="6.18"/>
	<line class="st1" x1="15.38" y1="12.05" x2="13.86" y2="8.56"/>
	<line class="st1" x1="12.14" y1="13.46" x2="10.62" y2="9.96"/>
</g>
</svg>
