<?xml version="1.0" encoding="utf-8"?>
<!-- Generator: Adobe Illustrator 24.0.0, SVG Export Plug-In . SVG Version: 6.00 Build 0)  -->
<svg version="1.1" id="Layer_1" xmlns="http://www.w3.org/2000/svg" xmlns:xlink="http://www.w3.org/1999/xlink" x="0px" y="0px"
	 viewBox="0 0 38.12 35.07" style="enable-background:new 0 0 38.12 35.07;" xml:space="preserve">
<style type="text/css">
	.st0{clip-path:url(#SVGID_2_);fill:#C1C1C1;}
	.st1{clip-path:url(#SVGID_2_);fill:#CD0010;}
</style>
<g>
	<defs>
		<rect id="SVGID_1_" y="0" width="38.12" height="35.07"/>
	</defs>
	<clipPath id="SVGID_2_">
		<use xlink:href="#SVGID_1_"  style="overflow:visible;"/>
	</clipPath>
	<path class="st0" d="M23.48,33.9c0,0.65,0.52,1.17,1.17,1.17c0.65,0,1.17-0.53,1.17-1.17V18.52c-0.84-0.33-1.62-0.76-2.34-1.28
		V33.9z"/>
	<path class="st0" d="M1.17,10.04C0.52,10.04,0,10.57,0,11.22V33.9c0,0.65,0.52,1.17,1.17,1.17s1.17-0.52,1.17-1.17V12.39h17.29
		c-0.3-0.74-0.52-1.53-0.65-2.35H1.17z"/>
	<path class="st0" d="M8.32,25.24H6.17c-0.65,0-1.17,0.52-1.17,1.17c0,0.65,0.53,1.17,1.17,1.17h2.16c0.65,0,1.17-0.52,1.17-1.17
		C9.5,25.77,8.97,25.24,8.32,25.24"/>
	<path class="st0" d="M8.32,30.23H6.17c-0.65,0-1.17,0.52-1.17,1.17c0,0.65,0.53,1.17,1.17,1.17h2.16c0.65,0,1.17-0.52,1.17-1.17
		C9.5,30.76,8.97,30.23,8.32,30.23"/>
	<path class="st0" d="M14.25,25.24h-2.16c-0.65,0-1.17,0.52-1.17,1.17c0,0.65,0.52,1.17,1.17,1.17h2.16c0.65,0,1.17-0.52,1.17-1.17
		C15.42,25.77,14.89,25.24,14.25,25.24"/>
	<path class="st0" d="M14.25,30.23h-2.16c-0.65,0-1.17,0.52-1.17,1.17c0,0.65,0.52,1.17,1.17,1.17h2.16c0.65,0,1.17-0.52,1.17-1.17
		C15.42,30.76,14.89,30.23,14.25,30.23"/>
	<path class="st0" d="M20.45,25.24h-2.16c-0.65,0-1.17,0.52-1.17,1.17c0,0.65,0.52,1.17,1.17,1.17h2.16c0.65,0,1.17-0.52,1.17-1.17
		C21.62,25.77,21.1,25.24,20.45,25.24"/>
	<path class="st0" d="M20.45,30.23h-2.16c-0.65,0-1.17,0.52-1.17,1.17c0,0.65,0.52,1.17,1.17,1.17h2.16c0.65,0,1.17-0.52,1.17-1.17
		C21.62,30.76,21.1,30.23,20.45,30.23"/>
	<path class="st0" d="M8.32,15.21H6.17c-0.65,0-1.17,0.52-1.17,1.17c0,0.65,0.53,1.17,1.17,1.17h2.16c0.65,0,1.17-0.52,1.17-1.17
		C9.5,15.74,8.97,15.21,8.32,15.21"/>
	<path class="st0" d="M8.32,20.06H6.17c-0.65,0-1.17,0.52-1.17,1.17c0,0.65,0.53,1.17,1.17,1.17h2.16c0.65,0,1.17-0.52,1.17-1.17
		C9.5,20.59,8.97,20.06,8.32,20.06"/>
	<path class="st0" d="M14.25,15.21h-2.16c-0.65,0-1.17,0.52-1.17,1.17c0,0.65,0.52,1.17,1.17,1.17h2.16c0.65,0,1.17-0.52,1.17-1.17
		C15.42,15.74,14.89,15.21,14.25,15.21"/>
	<path class="st0" d="M14.25,20.06h-2.16c-0.65,0-1.17,0.52-1.17,1.17c0,0.65,0.52,1.17,1.17,1.17h2.16c0.65,0,1.17-0.52,1.17-1.17
		C15.42,20.59,14.89,20.06,14.25,20.06"/>
	<path class="st0" d="M20.45,15.21h-2.16c-0.65,0-1.17,0.52-1.17,1.17c0,0.65,0.52,1.17,1.17,1.17h2.16c0.65,0,1.17-0.52,1.17-1.17
		C21.62,15.74,21.1,15.21,20.45,15.21"/>
	<path class="st0" d="M20.45,20.06h-2.16c-0.65,0-1.17,0.52-1.17,1.17c0,0.65,0.52,1.17,1.17,1.17h2.16c0.65,0,1.17-0.52,1.17-1.17
		C21.62,20.59,21.1,20.06,20.45,20.06"/>
	<path class="st1" d="M29.89,0c-4.54,0-8.24,3.69-8.24,8.24c0,4.54,3.69,8.23,8.24,8.23s8.23-3.69,8.23-8.23
		C38.12,3.69,34.43,0,29.89,0 M32.13,6.74c0.41,0,0.75,0.34,0.75,0.75c0,0.41-0.33,0.75-0.75,0.75h-1.5v1.5h1.5
		c0.41,0,0.75,0.33,0.75,0.75c0,0.41-0.33,0.75-0.75,0.75h-1.5v1.5c0,0.41-0.33,0.75-0.75,0.75c-0.41,0-0.75-0.34-0.75-0.75v-1.5
		h-1.5c-0.41,0-0.75-0.33-0.75-0.75c0-0.41,0.33-0.75,0.75-0.75h1.5v-1.5h-1.5c-0.41,0-0.75-0.34-0.75-0.75
		c0-0.41,0.33-0.75,0.75-0.75h2.25c-1.65,0-2.99-1.34-2.99-2.99c0-0.41,0.33-0.75,0.75-0.75s0.75,0.34,0.75,0.75
		c0,0.83,0.67,1.5,1.5,1.5c0.82,0,1.5-0.67,1.5-1.5c0-0.41,0.33-0.75,0.75-0.75c0.41,0,0.75,0.34,0.75,0.75
		c0,1.65-1.34,2.99-2.99,2.99H32.13z"/>
</g>
</svg>
