<?xml version="1.0" encoding="utf-8"?>
<!-- Generator: Adobe Illustrator 24.0.0, SVG Export Plug-In . SVG Version: 6.00 Build 0)  -->
<svg version="1.1" id="Layer_1" xmlns="http://www.w3.org/2000/svg" xmlns:xlink="http://www.w3.org/1999/xlink" x="0px" y="0px"
	 viewBox="0 0 36.14 29.62" style="enable-background:new 0 0 36.14 29.62;" xml:space="preserve">
<style type="text/css">
	.st0{clip-path:url(#SVGID_2_);fill:none;stroke:#C1C1C1;stroke-width:1.8;stroke-linecap:round;stroke-linejoin:round;}
	.st1{clip-path:url(#SVGID_2_);fill:#C1C1C1;}
	.st2{clip-path:url(#SVGID_2_);fill:none;stroke:#C1C1C1;stroke-width:2;stroke-linecap:round;stroke-linejoin:round;}
	.st3{clip-path:url(#SVGID_2_);fill:#CD0010;}
</style>
<g>
	<defs>
		<rect id="SVGID_1_" y="0" width="36.14" height="29.62"/>
	</defs>
	<clipPath id="SVGID_2_">
		<use xlink:href="#SVGID_1_"  style="overflow:visible;"/>
	</clipPath>
	<polygon class="st0" points="22.87,28.72 22.87,19.71 27.47,19.71 27.47,28.72 35.24,28.72 35.24,16.63 25.17,8.57 15.09,16.63 
		15.09,28.72 15.23,28.72 	"/>
	<path class="st1" d="M18.75,14.05c0.07,0.02,0.14,0.02,0.21,0.02c0.43,0,0.82-0.3,0.92-0.73c0.12-0.51-0.2-1.02-0.71-1.13
		c-1.07-0.24-2-0.64-2.8-1.12c-0.58,0.43-1.23,0.75-1.91,0.98C15.6,12.97,17.06,13.67,18.75,14.05"/>
	<path class="st1" d="M21.77,0c-1.57,0-3.05,0.27-4.38,0.75c0.45,0.48,0.82,1.02,1.11,1.61c1-0.3,2.1-0.46,3.27-0.46
		c4.43,0,8.04,2.38,8.04,5.3c0,1.3-0.73,2.55-2.07,3.53c-0.9,0.66-2.04,1.17-3.3,1.47c-0.51,0.12-0.82,0.63-0.7,1.14
		c0.12,0.51,0.63,0.82,1.14,0.7c1.5-0.35,2.88-0.97,3.98-1.79c1.83-1.35,2.84-3.14,2.84-5.05C31.7,3.23,27.25,0,21.77,0"/>
	<path class="st2" d="M18.96,13.13c-3.59-0.82-6.17-3.17-6.17-5.94c0-0.65,0.14-1.28,0.41-1.86"/>
	<path class="st3" d="M10.18,7.86C9.54,7.3,9.15,6.52,9.1,5.67C9.05,4.81,9.33,3.99,9.89,3.36c0.63-0.71,1.51-1.08,2.39-1.08
		c0.75,0,1.5,0.26,2.11,0.8c0.45,0.39,0.74,0.89,0.91,1.42c0,0.01,0.01,0.02,0.01,0.03c0.01,0.01,0.01,0.03,0.01,0.04
		c0.02,0.06,0.04,0.12,0.05,0.18c0.04,0.16,0.07,0.31,0.08,0.47c0,0.03,0.01,0.06,0.01,0.09c0,0.06,0,0.12-0.01,0.18
		c0,0.51-0.12,1.02-0.37,1.48c-0.01,0.07-0.02,0.15-0.02,0.22c0,0.64,0.3,1.26,0.82,1.83c0.07-0.07,0.14-0.12,0.21-0.19
		c1.86-2.1,1.65-5.32-0.45-7.17c-2.1-1.85-5.32-1.65-7.17,0.45c-0.9,1.02-1.35,2.32-1.26,3.68c0.06,1.03,0.44,2,1.06,2.8L2,15.69
		c0,0,0,0,0,0l0,0l-1.76,2c-0.35,0.39-0.31,0.99,0.08,1.33c0.18,0.16,0.4,0.24,0.63,0.24c0.26,0,0.52-0.11,0.71-0.32l1.14-1.29
		l2.39,2.11C5.37,19.92,5.59,20,5.81,20c0.26,0,0.52-0.11,0.71-0.32c0.34-0.39,0.31-0.99-0.08-1.33l-2.39-2.11l1.29-1.46l2.39,2.11
		c0.18,0.16,0.4,0.24,0.62,0.24c0.26,0,0.52-0.11,0.71-0.32c0.34-0.39,0.31-0.99-0.08-1.33l-2.39-2.11l3.11-3.53
		c0.51,0.3,1.07,0.51,1.65,0.61c-0.39-0.72-0.64-1.49-0.76-2.3C10.44,8.06,10.3,7.97,10.18,7.86"/>
	<path class="st1" d="M18.96,14.08c-0.07,0-0.14-0.01-0.21-0.02c-4.13-0.95-6.91-3.7-6.91-6.86c0-0.77,0.16-1.53,0.49-2.25
		c0.21-0.48,0.77-0.69,1.25-0.48c0.48,0.21,0.69,0.77,0.47,1.25c-0.21,0.48-0.32,0.98-0.32,1.48c0,2.26,2.19,4.27,5.44,5.02
		c0.51,0.12,0.83,0.62,0.71,1.13C19.78,13.78,19.39,14.08,18.96,14.08"/>
</g>
</svg>
