<?xml version="1.0" encoding="utf-8"?>
<!-- Generator: Adobe Illustrator 24.0.0, SVG Export Plug-In . SVG Version: 6.00 Build 0)  -->
<svg version="1.1" id="Layer_1" xmlns="http://www.w3.org/2000/svg" xmlns:xlink="http://www.w3.org/1999/xlink" x="0px" y="0px"
	 viewBox="0 0 54 37.32" style="enable-background:new 0 0 54 37.32;" xml:space="preserve">
<style type="text/css">
	.st0{clip-path:url(#SVGID_2_);fill:none;stroke:#cd0010;stroke-width:2;stroke-linecap:round;stroke-linejoin:round;}
	.st1{clip-path:url(#SVGID_2_);fill:none;stroke:#cd0010;stroke-width:2;stroke-linecap:round;stroke-linejoin:round;}
</style>
<g>
	<defs>
		<rect id="SVGID_1_" y="0" width="54" height="37.32"/>
	</defs>
	<clipPath id="SVGID_2_">
		<use xlink:href="#SVGID_1_"  style="overflow:visible;"/>
	</clipPath>
	<polygon class="st0" points="10.5,36.32 10.5,25.32 16.12,25.32 16.12,36.32 25.62,36.32 25.62,21.55 13.31,11.71 1,21.55 1,36.32 
		1.17,36.32 	"/>
	<path class="st1" d="M36.89,5.03C36.89,2.8,40.5,1,44.94,1C49.39,1,53,2.8,53,5.03s-3.61,4.03-8.06,4.03
		C40.5,9.05,36.89,7.25,36.89,5.03"/>
	<path class="st1" d="M36.89,10.06v5.03c0,2.22,3.61,4.03,8.05,4.03c4.45,0,8.06-1.8,8.06-4.03v-5.03"/>
	<path class="st1" d="M36.89,5.03v5.03c0,2.22,3.61,4.03,8.05,4.03c4.45,0,8.06-1.8,8.06-4.03V5.03"/>
	<polyline class="st0" points="26.63,12.42 31.46,12.42 31.46,17.14 	"/>
	<line class="st0" x1="27.37" y1="16.45" x2="31.43" y2="12.39"/>
</g>
</svg>
